<svg width="101" height="76" viewBox="0 0 101 76" fill="none" xmlns="http://www.w3.org/2000/svg">
<path d="M0 0H101V76H0V0Z" fill="white" fill-opacity="0.01"/>
<path fill-rule="evenodd" clip-rule="evenodd" d="M61.3315 49.3052C61.173 51.6379 58.018 52.8508 56.1044 53.3484C56.488 51.06 56.9833 48.6877 56.6751 46.3668C56.5737 45.6024 56.4406 44.842 56.2975 44.0844C56.2447 43.8042 56.1901 43.5243 56.1336 43.2449C56.1199 43.1769 56.0089 42.8795 56.0442 42.8117C56.1075 42.6905 56.6427 42.7095 56.7792 42.7149C57.1306 42.7283 57.4755 42.8175 57.797 42.9584C58.473 43.2545 59.0424 43.7642 59.5115 44.3269C60.618 45.6536 61.4511 47.5461 61.3315 49.3052ZM57.6788 33.4479C55.8473 34.5361 53.6411 35.12 51.552 35.4046C48.3696 35.8383 45.1203 35.3391 42.009 34.6474C41.2451 34.4776 40.4828 34.2945 39.7301 34.0797C39.6962 36.2919 40.3165 38.3956 41.528 40.2405C42.5296 41.7659 43.8368 43.0406 44.9793 44.4536C46.043 45.7688 46.9009 47.2525 46.9435 48.9885C46.9612 49.713 46.9019 50.3759 46.2973 50.8454C45.6897 51.3172 44.8691 51.4922 44.1256 51.5996C42.264 51.8688 40.3142 51.7233 38.4642 51.4271C38.105 51.3695 37.7465 51.304 37.392 51.222C36.9895 51.1291 36.8484 51.0195 36.5123 51.3227C35.7868 51.9768 35.4541 52.9579 35.2897 53.8964C34.9818 55.6541 35.0863 57.7045 35.5301 59.4387C35.9578 61.1092 37.976 62.0351 39.4712 62.4388C43.9811 63.6565 48.9568 61.9748 52.4173 58.9811C52.4927 58.9158 52.5675 58.8497 52.6406 58.7816C52.8864 59.2951 53.1548 59.7996 53.4481 60.2873C53.6522 60.6266 53.867 60.9676 54.1244 61.2697C54.2173 61.3786 54.3264 61.526 54.4534 61.5974C54.6899 61.7303 54.9304 61.6326 55.1981 61.5859C57.1732 61.2418 59.1437 60.7893 61.0218 60.0767C63.8769 58.9933 66.4376 57.2085 67.7908 54.3892C68.4744 52.9651 68.8308 51.4047 69.0033 49.8399C69.2013 48.0432 69.2441 46.2065 68.7401 44.4553C67.8167 41.2461 65.4606 38.6445 62.8805 36.6379C61.284 35.3962 59.5288 34.2742 57.6788 33.4479Z" fill="#FF5678"/>
<path fill-rule="evenodd" clip-rule="evenodd" d="M89.9512 12.1968C89.5337 12.3632 89.0843 12.4096 88.6402 12.4421C88.2919 12.4677 88.0184 12.6078 87.6902 12.6157C86.7763 12.6376 85.8584 12.6787 84.9489 12.8158C84.0354 12.9534 83.194 12.7736 82.4727 13.4623C82.216 13.7073 81.8941 13.989 82.0484 14.3846C82.1192 14.5657 82.2189 14.6956 82.2777 14.8901C82.3442 15.1098 82.4269 15.3175 82.5229 15.5267C82.7073 15.9281 83.6307 17.423 82.8814 17.6059C82.069 17.8041 80.9673 17.5724 80.1847 17.3456C79.7282 17.2133 79.2788 17.0582 78.8288 16.9054C78.4726 16.7845 78.0046 16.7159 77.6763 16.5265C77.4585 16.4007 77.4135 16.1862 77.2695 15.9824C77.0078 15.6116 76.7632 15.2958 76.4249 14.9872C75.7232 14.3473 74.8458 13.9127 73.9807 13.5309C73.9249 13.506 73.8229 13.4483 73.7627 13.4426C73.6976 13.4366 73.6258 13.5038 73.5837 13.4956C73.4684 13.4732 73.4282 13.4003 73.3019 13.3284C73.1323 13.2318 72.4408 12.9103 72.3199 13.163C72.433 12.831 72.5156 12.9268 72.8219 12.975C72.9568 12.9964 73.0471 12.9343 73.1683 12.9406C73.2799 12.9462 73.3258 13.01 73.4191 13.0273C73.59 13.0587 73.7492 13.035 73.9277 13.0337C73.9756 12.9275 74.0437 12.9283 74.1317 13.036C74.181 13.052 74.2302 13.0679 74.2793 13.0841C74.457 13.1329 74.647 13.1235 74.8289 13.1379C75.1022 13.1597 75.8142 13.4939 75.9513 13.1556C76.0975 12.7943 75.6535 12.7043 75.5794 12.4521C75.5072 12.2047 75.8455 12.0595 75.9812 11.9102C76.1359 11.7403 76.2303 11.5912 76.4118 11.4416C76.5182 11.3537 76.6575 11.2718 76.7363 11.1548C76.8088 11.0471 76.8057 10.873 76.8998 10.7834C77.0119 10.6764 77.0292 10.7504 77.1312 10.6988C77.3311 10.5972 77.2428 10.6024 77.3611 10.4636C77.4622 10.3451 77.5368 10.3487 77.6692 10.2578C77.8629 10.1247 77.9311 9.86469 78.1193 9.72168C78.257 9.61697 78.4763 9.61715 78.5971 9.5084C78.6684 9.44435 78.6464 9.34054 78.7079 9.28007C78.826 9.16387 78.9069 9.21106 79.0544 9.17275C79.3031 9.10815 79.3835 8.97025 79.5666 8.81055C79.7339 8.66474 79.84 8.66538 80.0494 8.6049C80.3354 8.52236 80.5202 8.30613 80.7782 8.17908C81.0212 8.05957 81.2722 7.97577 81.518 7.84845C81.6955 7.75649 81.8665 7.69942 82.0286 7.60557C82.0833 7.5739 82.0881 7.4579 82.1587 7.44219C82.2397 7.42407 82.3046 7.55928 82.3909 7.56636C82.5715 7.58126 82.7773 7.3801 82.896 7.26364C82.9476 7.21304 83.0174 7.07621 83.0838 7.04795C83.2226 6.98873 83.3055 7.106 83.4293 7.05971C83.603 6.99475 83.5339 6.80453 83.6403 6.69965C83.7333 6.60813 83.931 6.61433 84.0963 6.6433C84.7621 6.75976 83.7258 7.23171 83.531 7.32717C83.2033 7.48795 80.8186 8.65757 81.3764 9.24086C81.6716 9.54941 82.3922 9.31738 82.7131 9.2361C83.2757 9.09353 83.8621 8.81907 84.4391 8.75608C84.5104 8.74828 84.7232 8.79951 84.7812 8.77717C84.9123 8.72684 84.8797 8.62617 84.9862 8.57323C85.1467 8.49373 85.4744 8.49759 85.6373 8.51545C85.7646 8.52945 85.9041 8.60571 86.0335 8.59539C86.1762 8.58399 86.314 8.50074 86.4555 8.47391C86.6976 8.42815 86.9482 8.45058 87.1927 8.45767C87.5443 8.46798 88.2473 8.52128 87.7364 8.98999C87.3229 9.36934 86.6076 9.53353 86.086 9.69906C85.3144 9.94372 84.5564 10.1664 83.7948 10.4451C83.2758 10.6349 82.1687 10.9684 82.7866 11.6801C82.8476 11.6223 82.9086 11.5647 82.9694 11.5069C83.0415 11.58 83.116 11.7223 83.2314 11.7265C83.3274 11.7298 83.2922 11.6263 83.3829 11.5939C83.6684 11.4923 84.0595 11.5 84.3605 11.4809C85.1143 11.433 85.8655 11.3328 86.6203 11.3017C87.3313 11.2725 88.0497 11.3105 88.7467 11.4602C88.926 11.4987 90.5975 11.9391 89.9512 12.1968ZM83.7864 19.5149C83.8243 19.8325 83.6838 20.0895 83.6448 20.3964C83.5976 20.7674 83.6322 21.0941 83.5274 21.463C83.3236 22.1799 83.1787 22.9134 82.9601 23.6262C82.5739 24.8847 81.9505 25.9962 81.3094 27.1381C80.9824 27.7203 80.4899 28.201 80.0398 28.688C79.5786 29.1871 79.2101 29.6783 78.6588 30.0881C77.557 30.907 76.368 31.6355 75.0636 32.0779C73.6983 32.5411 72.2625 32.6815 70.8284 32.6226C70.192 32.5965 69.5174 32.6611 68.8911 32.5579C68.2251 32.4479 67.5034 32.313 66.8489 32.1508C65.6473 31.8532 64.4897 31.348 63.3163 30.8968C62.0058 30.3928 60.826 29.7494 59.631 29.0227C59.3148 28.8304 58.9807 28.7407 58.6843 28.5079C58.4342 28.3119 58.1883 28.1243 57.9255 27.9452C57.6238 27.7398 57.335 27.5152 57.0267 27.3199C56.8426 27.2031 56.5835 27.0889 56.4868 26.8777C56.3538 26.587 56.5141 26.2221 56.597 25.9401C56.7049 25.5732 56.8197 25.2108 56.9494 24.8511C57.1691 24.242 57.728 23.3026 57.4206 22.6587C56.7725 23.0615 56.4866 23.8535 56.2096 24.5267C55.8787 25.331 55.6477 26.1334 55.5977 27.0057C55.4975 28.7604 55.7902 30.6074 56.4247 32.2436C56.519 32.4865 56.6846 32.75 56.5629 33.01C56.4351 33.2827 56.0885 33.5131 55.8221 33.6311C54.9793 34.004 54.1331 34.1127 53.2529 34.319C53.0133 34.3751 52.7509 34.5439 52.526 34.5651C52.3742 34.5795 52.2488 34.5295 52.0749 34.5307C51.9003 34.5319 51.7637 34.63 51.6075 34.6404C51.4711 34.6497 51.35 34.5697 51.2199 34.5772C50.929 34.5942 50.8753 35.0947 50.731 34.6541C50.7049 34.6722 50.5604 34.8365 50.5422 34.8366C50.5011 34.8367 50.4286 34.7142 50.3893 34.6924C50.3128 34.6498 50.212 34.6474 50.1265 34.6363C49.9378 34.6117 49.7342 34.6092 49.5484 34.6526C49.2038 34.7332 48.8573 34.6992 48.5626 34.6934C48.4956 34.6921 48.4481 34.7462 48.3647 34.7431C48.3267 34.7415 48.2721 34.6741 48.2318 34.6637C47.9988 34.6034 47.7569 34.6485 47.5197 34.6353C46.9621 34.6044 46.4238 34.5895 45.8795 34.4659C44.7637 34.2125 43.6262 34.1617 42.506 33.9299C41.9353 33.8118 41.3779 33.7473 40.8159 33.5917C40.6185 33.537 40.4161 33.5111 40.2411 33.4365C40.074 33.3652 40.1397 33.2702 39.8804 33.461C39.7639 33.1745 39.7501 33.2037 39.4689 33.109C39.3601 33.0723 39.1102 32.9812 39.0292 32.9091C39.0211 32.9018 38.848 32.4657 38.8331 32.4121C38.761 32.1516 38.8211 31.8539 38.8512 31.5917C38.9191 31.0008 39.0174 30.4144 39.0232 29.8187C39.0258 29.556 39.073 29.5483 39.1545 29.3503C39.1796 29.289 39.2537 29.2938 39.2598 29.2004C39.2682 29.0758 39.1412 28.9891 39.1549 28.8437C39.1731 28.6479 39.369 28.4496 39.4377 28.2672C39.5204 28.0476 39.5193 27.8154 39.5686 27.5881C39.6346 27.2857 39.7621 27.0019 39.8263 26.6982C39.8809 26.441 39.8861 26.2364 40.0226 26.0157C40.1592 25.7955 40.119 25.6156 40.2278 25.3963C40.3276 25.1951 40.4539 25.1228 40.5222 24.8799C40.6877 24.2922 40.9392 23.7103 41.2955 23.212C41.6089 24.4614 41.9422 25.7522 42.8147 26.7397C43.1742 27.1463 43.6381 27.5566 44.18 27.6805C44.7927 27.8205 45.2827 27.458 45.6817 27.0285C46.6323 26.005 47.0261 24.8625 47.0835 23.4747C47.0978 23.1297 47.0957 22.7843 47.0911 22.4391C47.0889 22.2855 47.0104 21.8913 47.1153 21.7621C47.2303 21.6205 47.5586 21.709 47.7294 21.6157C47.9394 21.5007 48.1702 21.1932 48.0765 20.9397C48.6363 21.194 49.1716 21.5288 49.7942 21.5996C50.0407 21.6277 50.3031 21.585 50.5236 21.5732C50.517 21.5735 50.6942 21.6098 50.7049 21.6122C50.7486 21.5616 50.7959 21.5494 50.8468 21.5753C50.8921 21.5801 50.925 21.6045 50.9457 21.6485C51.8331 21.7375 52.7266 21.2975 53.4862 20.8315C53.93 20.5592 54.4174 20.1561 54.542 19.626C54.5865 19.4369 54.548 19.2587 54.7429 19.1622C54.9012 19.0836 55.207 19.1969 55.3741 19.2092C55.9618 19.2524 56.541 19.1964 57.1148 19.3722C57.465 19.4794 58.0763 20.231 58.3205 19.7023C58.4264 19.802 58.3689 19.9797 58.4817 20.0768C58.58 20.1614 58.9105 20.2209 59.0464 20.2934C59.257 20.4054 59.3805 20.5545 59.5649 20.6892C59.7913 20.8548 60.0283 20.8675 60.2476 21.0618C61.007 21.7345 61.8964 22.2218 62.7443 22.7797C63.7502 23.4415 64.6405 24.2217 65.7199 24.7615C66.8239 25.3135 67.8921 25.7747 69.0985 26.0619C69.6457 26.1922 70.2069 26.3009 70.7688 26.3411C71.0337 26.3599 71.2865 26.3504 71.542 26.4302C71.6973 26.4787 71.7475 26.5029 71.9 26.5074C71.9888 26.5099 72.1175 26.4585 72.2269 26.4605C72.4517 26.4645 72.5665 26.4552 72.7694 26.5298C72.9989 26.6142 73.1898 26.665 73.4512 26.6722C73.7518 26.6807 73.9288 26.5649 74.202 26.4934C74.4221 26.4358 74.6204 26.4633 74.8173 26.3437C75.693 25.8123 76.3965 25.0007 76.8558 24.0794C77.383 23.022 77.7891 21.733 77.8717 20.5481C77.919 19.8698 77.7699 19.2084 77.5118 18.5857C77.4389 18.41 77.0018 17.6618 77.1365 17.5259C77.2893 17.3714 77.7891 17.7254 77.9301 17.8023C78.3772 18.0461 79.1847 18.1242 79.4981 18.5344C79.5779 18.3807 80.0219 18.6085 80.1643 18.6726C80.2821 18.7257 80.3154 18.8216 80.4637 18.833C80.6033 18.8438 80.7474 18.7321 80.8758 18.6965C80.782 18.959 81.0973 18.9713 81.3134 18.9852C81.4689 18.9952 81.6362 18.9707 81.7748 18.9608C82.04 18.9419 82.0444 18.8821 82.2866 18.7458C82.2771 18.8456 82.288 18.9432 82.3189 19.0384C82.4745 18.8123 82.7716 18.9693 82.982 18.87C82.83 18.6385 83.4791 18.5751 83.6303 18.6237C84.0108 18.7464 83.7528 19.2334 83.7864 19.5149ZM53.9884 35.424C54.2395 35.3489 54.4922 35.2802 54.744 35.2085C54.5532 35.3841 54.3551 35.7011 54.0826 35.7506C53.754 35.81 53.6246 35.5328 53.9884 35.424ZM41.5917 35.5499C42.0144 35.6006 42.4748 35.5617 42.8453 35.8122C42.6647 36.0206 42.5474 36.2388 42.2462 36.1193C41.9931 36.0189 41.7848 35.7326 41.5917 35.5499ZM55.7149 46.9625C55.4374 46.7128 55.474 46.601 55.6043 46.2777C55.6604 46.1386 55.7491 45.7064 55.9597 45.833C56.0345 45.878 56.125 46.349 56.1385 46.4445C56.1682 46.6578 56.0367 47.2521 55.7149 46.9625ZM57.2805 45.5121C57.1825 45.1505 57.1858 44.7569 57.0895 44.3865C56.9878 43.9953 56.8626 43.6028 56.8266 43.1986C58.2934 43.4585 59.1263 44.919 59.7616 46.1377C60.0992 46.7853 60.4302 47.5016 60.5575 48.2255C60.6817 48.931 60.4662 49.4667 60.2157 50.0954C60.0881 50.4164 59.8771 50.5277 59.6308 50.7398C59.4126 50.9277 59.3308 51.2448 59.1034 51.4136C58.9354 51.5384 58.717 51.6031 58.5413 51.7291C58.3678 51.8535 58.1942 51.9768 58.015 52.093C57.8102 52.2257 57.1965 52.7098 56.92 52.6065C56.713 52.5292 56.8052 52.2751 56.8574 52.1158C56.9672 51.7799 57.0443 51.4565 57.1121 51.1064C57.293 50.1722 57.3911 49.2438 57.438 48.2936C57.4838 47.3658 57.5265 46.4179 57.2805 45.5121ZM56.0538 49.7257C56.0758 49.7717 56.1675 50.1638 55.963 50.0833C55.821 50.0272 56.033 49.7978 56.0538 49.7257ZM56.9179 34.1545C57.091 34.0827 57.1603 34.295 57.3126 34.3013C57.5146 34.3097 57.557 34.0843 57.769 34.0777C58.2873 34.0613 59.0383 34.5639 59.4597 34.8261C59.2534 35.0878 59.1683 35.3556 59.2708 35.6778C59.3613 35.9617 59.7066 36.2792 59.694 36.58C59.6809 36.8817 59.3072 37.0759 59.1907 37.3443C59.0836 37.5908 59.0428 38.0838 59.3734 38.1925C59.9421 38.3794 60.0722 37.3106 60.5032 37.3023C60.6874 37.2989 60.9269 37.6464 61.0593 37.7547C61.3561 37.997 61.6908 38.1741 62.0359 38.335C62.2689 38.4435 62.5932 38.6576 62.7659 38.3656C62.9044 38.1319 62.7912 37.7614 62.6567 37.5602C62.5023 37.3294 61.1192 36.2732 61.2065 36.1801C61.2531 36.1305 61.5975 36.2673 61.6463 36.3089C61.7566 36.4025 61.7971 36.555 61.9076 36.6547C62.0763 36.807 62.2943 36.8673 62.5029 36.9378C62.9383 37.0845 63.2139 37.6009 63.6358 37.8414C63.8793 37.98 64.0278 38.2463 64.2337 38.4525C64.5033 38.7225 64.778 39.0054 64.7375 39.4029C64.7092 39.6784 64.6685 40.3201 64.5133 40.5525C64.3447 40.8048 64.0643 40.7081 63.8081 40.7676C63.52 40.8346 63.2895 41.0602 63.3469 41.3824C63.4065 41.7174 63.6735 41.7413 63.9524 41.7497C64.7391 41.7736 64.4494 42.2748 64.7237 42.8253C64.8728 43.1242 65.1214 43.2416 65.2925 42.8917C65.4302 42.6102 65.1842 42.1663 65.3337 41.926C65.5158 41.6329 66.4904 41.7127 66.6936 41.9402C66.8477 42.1128 66.9294 42.3501 67.083 42.5306C67.3162 42.8046 67.4121 43.1888 67.552 43.5247C67.7006 43.8815 67.8302 44.2434 67.9439 44.613C68.0239 44.8725 68.1965 45.2837 67.7832 45.0619C67.4945 44.9072 67.2789 44.5579 66.9132 44.5468C66.5514 44.5359 66.3453 44.9129 66.451 45.2408C66.5532 45.558 67.0196 45.6978 67.0736 46.0195C67.133 46.3714 66.5322 46.7304 66.3498 46.9892C65.9297 47.5849 66.2811 48.2556 66.9695 47.7499C67.2135 47.5706 67.4691 47.209 67.7444 47.0958C68.1798 46.9165 68.1773 47.5806 68.3859 47.8251C68.4982 47.9565 68.5388 47.8229 68.4723 48.0194C68.4477 48.0919 68.3234 48.1145 68.3093 48.2046C68.2993 48.2706 68.3582 48.3055 68.3602 48.3566C68.3671 48.5297 68.3675 48.5553 68.3287 48.7435C68.2858 48.9521 68.3014 49.2114 68.2884 49.4234C68.2587 49.908 68.2524 50.3709 68.2016 50.8553C68.1735 51.1248 68.1145 51.674 68.4317 51.8055C68.3188 51.983 68.1685 52.4768 67.9466 52.4397C67.9646 52.5566 67.9545 52.7059 68.0676 52.7823C68.0947 52.711 68.1217 52.6398 68.1487 52.5684C68.2109 52.7313 68.1562 52.7501 68.1525 52.861C68.1572 52.7237 68.0276 53.0525 68.0977 53.012C68.0381 53.0619 67.9596 53.0904 67.87 53.1551C67.745 53.2454 67.6791 53.3701 67.582 53.4922C67.4064 53.7129 67.4165 53.9358 67.2627 54.166C67.0446 54.4925 66.7647 54.8148 66.5348 55.141C66.3477 55.4067 65.9912 55.5597 65.8413 55.8452C65.7459 56.0268 65.7079 56.238 65.5453 56.3657C65.3122 56.5485 65.0008 56.7208 64.7477 56.9097C64.5885 57.0284 64.4675 57.1931 64.3087 57.3083C64.2282 57.3667 63.9861 57.4259 63.9858 57.5447C63.6811 57.4591 63.4653 57.1468 63.2257 56.9568C63.0656 56.8298 62.6843 56.6648 62.7073 56.4102C62.7262 56.202 63.0213 55.9436 63.0893 55.7252C63.147 55.5402 63.2272 55.1951 63.0678 55.0369C62.7332 54.7054 62.3539 55.417 62.1743 55.6065C61.8038 55.9971 61.6463 55.6032 61.3417 55.3195C60.8552 54.8663 60.5493 55.3365 60.7205 55.9008C60.8073 56.1863 61.1377 56.4411 61.1591 56.7328C61.1826 57.0533 60.8364 57.2144 60.6994 57.4705C60.5701 57.7121 60.5103 58.1364 60.7535 58.3363C61.0217 58.5568 61.2548 58.2959 61.4302 58.0925C61.5664 57.9343 61.7178 57.5865 61.939 57.5667C62.2162 57.5421 62.6707 58.0472 62.8816 58.203C62.5612 58.296 62.3684 58.5652 62.0975 58.7376C61.7481 58.96 61.2602 59.0127 60.8691 59.1654C60.5006 59.3094 60.1691 59.4265 59.8182 59.6051C59.4019 59.8168 58.8927 59.8698 58.4518 60.0239C58.0582 60.1617 57.6848 60.3549 57.2828 60.4686C56.8297 60.5967 56.3594 60.6738 55.9025 60.7897C55.5118 60.8886 55.0536 60.9838 54.651 60.9845C54.2437 60.9852 54.2522 60.7323 54.122 60.3951C53.9672 59.9948 53.711 59.6433 53.5476 59.2526C53.392 58.881 53.6269 58.7399 53.8521 58.4556C54.0643 58.1876 54.0082 58.1456 54.2818 58.3338C54.642 58.5814 54.8799 58.4139 55.1601 58.1291C55.4095 57.8761 55.501 57.6656 55.8597 57.8419C56.2187 58.0183 56.5607 58.3052 56.9464 58.4203C57.2502 58.5109 57.4766 58.4451 57.5275 58.1116C57.5824 57.7513 57.3777 57.4956 57.1195 57.2815C56.9231 57.1188 56.4939 56.9257 56.4221 56.6615C56.3465 56.3833 56.7449 55.9773 56.7876 55.6662C56.8412 55.2734 56.6726 54.9846 56.3012 55.2565C56.0317 55.4538 55.8524 55.8816 55.4783 55.9081C55.5822 55.4708 55.8075 55.0822 56.0009 54.6814C56.1629 54.346 56.3019 53.9651 56.7369 53.9277C56.8779 53.9156 56.9696 53.9304 57.1042 53.906C57.2818 53.874 57.5229 53.8485 57.7128 53.8004C58.1596 53.6871 58.5543 53.3409 58.9657 53.1425C59.0601 53.3972 59.2269 54.1227 59.6111 53.6991C59.8953 53.3858 59.5805 52.8466 59.8423 52.4981C60.3823 51.7789 61.5584 52.307 62.2679 51.9362C62.5767 51.7748 62.8281 51.26 62.3927 51.1047C62.1382 51.0141 61.4035 51.3489 61.2504 51.1021C61.1412 50.926 61.5986 50.2385 61.6538 50.0494C61.8258 49.4612 61.7979 48.8506 61.7979 48.2447C62.1431 48.3864 62.58 48.7182 62.952 48.7636C63.3345 48.8102 63.4018 48.3595 63.3016 48.0635C63.1634 47.6557 62.7031 47.3216 62.3875 47.0588C62.2484 46.9431 61.8842 46.7567 61.808 46.5807C61.7293 46.3989 61.842 46.3108 61.9304 46.1529C62.0685 45.906 62.403 45.2678 62.039 45.0365C61.7041 44.8237 61.5162 45.4202 61.3029 45.5477C60.9409 45.7643 60.8168 45.2683 60.6729 45.0158C60.4116 44.5576 60.0495 44.1486 59.7245 43.7362C59.4286 43.3609 59.2464 43.1068 59.2032 42.6286C59.1704 42.2663 59.0966 41.9858 59.5223 41.9035C60.2771 41.7576 61.3821 42.1171 61.9952 41.5009C62.3167 41.1778 62.087 40.8437 61.681 40.8604C61.1477 40.8822 60.6406 40.9087 60.1039 40.8652C59.8185 40.8422 59.222 40.9117 59.0779 40.6166C58.8925 40.2366 59.2069 39.6262 58.8655 39.2932C58.4296 38.8679 58.3228 39.8289 58.3084 40.0942C58.2977 40.2876 58.3471 40.5819 58.2273 40.7491C58.1153 40.9051 57.9109 40.9028 57.7455 40.9592C57.3288 41.1013 57.1136 41.615 57.6664 41.7237C57.8523 41.7603 58.1116 41.7071 58.2661 41.8454C58.4279 41.9902 58.3661 42.2475 58.3813 42.4426C57.9941 41.9923 57.1892 42.1919 56.6649 42.0246C56.3887 41.9365 56.342 41.8192 56.2258 41.5508C56.0853 41.226 55.7648 40.8153 55.7525 40.4562C55.7421 40.1513 55.9952 39.9219 56.1133 39.659C56.2147 39.4335 56.3064 39.0665 56.2914 38.8134C56.2552 38.203 55.1578 38.8261 54.9318 39.0596C54.5216 39.4835 54.0158 40.0317 54.2382 40.6321C54.4365 41.1677 54.5418 41.4715 53.8535 41.4294C53.6016 41.4139 53.0725 41.464 52.8771 41.3572C52.732 41.2781 52.7865 41.136 52.7817 40.9301C52.7776 40.7518 52.7911 40.4816 52.677 40.3257C52.2756 39.7777 52.1817 41.1415 51.9562 41.2893C51.6041 41.5203 50.8585 41.2782 50.916 41.9639C50.9664 42.5638 51.7745 42.3188 51.9981 42.835C52.1058 43.0837 52.0829 43.3731 52.2185 43.6131C52.4117 43.9551 52.6495 43.9369 52.7776 43.5803C52.8676 43.3299 52.7477 43.0725 52.8169 42.8362C52.9168 42.4945 53.3926 42.5261 53.6854 42.4875C54.0411 42.4405 54.3512 42.3507 54.6896 42.2408C55.1071 42.1053 55.0845 42.3278 55.1524 42.65C55.2313 43.0239 55.3519 43.3843 55.4258 43.7637C55.4947 44.1173 55.6774 44.4981 55.7072 44.852C55.7299 45.1225 55.6386 45.0978 55.4154 45.2539C55.1713 45.4245 54.9027 45.8681 54.6195 45.941C54.1935 46.0507 53.7642 45.0735 53.3766 45.5736C53.2101 45.7882 53.2746 46.2453 53.3929 46.4671C53.5492 46.7601 53.8367 46.8346 53.5958 47.1703C53.4147 47.4224 53.1872 47.6177 53.1702 47.9571C53.1543 48.2721 53.3678 48.57 53.7015 48.4775C53.9712 48.4029 54.1306 48.1257 54.3348 47.9575C54.6873 47.667 54.9767 47.9361 55.3375 48.1005C55.6214 48.2299 56.1434 48.3143 56.2858 48.6187C56.4667 49.0049 56.2348 49.1543 55.8988 49.0444C56.0298 49.4763 55.8574 49.7271 55.8102 50.1734C55.7719 50.5347 55.6892 50.8653 55.6364 51.2146C55.5664 51.681 55.559 51.6304 55.0806 51.6462C54.6742 51.6597 54.2791 51.6488 53.8733 51.6309C53.5157 51.6152 53.2725 51.6476 53.2564 51.2146C53.2493 51.0235 53.3693 50.3756 52.994 50.4534C52.6635 50.5219 52.7587 51.1138 52.6481 51.3363C52.4882 51.6583 52.2177 51.5598 51.9168 51.6393C51.6106 51.7203 51.3631 51.9471 51.4421 52.2976C51.5265 52.6717 51.8682 52.6457 52.1653 52.7323C52.6228 52.8655 52.5225 53.5408 52.7895 53.9076C52.8985 54.0573 53.0132 54.2085 53.1961 54.0857C53.5316 53.8603 53.2149 53.3099 53.3036 53.0337C53.3968 52.7433 53.7111 52.8028 54.0082 52.7651C54.4468 52.7095 54.9058 52.4973 55.3428 52.4999C55.259 52.7529 55.0243 52.8999 54.9398 53.1663C54.8945 53.3091 54.9368 53.5758 54.8739 53.6939C54.8063 53.8207 54.5932 53.8587 54.505 54.0352C54.3896 54.2663 54.354 54.5138 54.219 54.7401C53.8998 55.2752 53.6249 55.8224 53.2856 56.3521C52.9353 56.8991 52.5577 57.4198 52.117 57.894C51.6894 58.3541 51.5619 58.1313 51.1945 57.7551C51.045 57.602 50.7273 57.4248 50.6857 57.1962C50.6446 56.9708 50.8304 56.7869 50.9321 56.6035C51.067 56.3602 51.3105 55.9417 51.2512 55.6499C51.1398 55.1019 50.6516 55.6064 50.4665 55.8116C50.1432 56.1699 49.9625 56.5467 49.4738 56.2637C49.1611 56.0824 48.7666 55.5864 48.3561 55.7698C47.9824 55.9369 48.0871 56.4194 48.317 56.6642C48.4458 56.8014 48.6292 56.8798 48.7658 57.0082C49.06 57.2849 48.8935 57.36 48.7592 57.6698C48.6494 57.9236 48.6335 58.4222 48.836 58.6336C49.2346 59.0492 49.5427 58.2107 49.9126 58.1936C50.0879 58.1856 50.8167 58.6654 50.8687 58.8382C50.9598 59.1413 50.1735 59.5033 49.9646 59.6456C49.4787 59.9765 48.9493 60.3139 48.4027 60.5333C47.7576 60.7923 48.2384 59.9762 47.8857 59.7051C47.4271 59.3524 47.3916 60.3186 47.3445 60.5587C47.2195 61.1972 46.5473 61.2138 46.005 61.3722C45.6598 61.473 45.3143 61.5801 44.9655 61.6677C44.6695 61.7422 44.3381 61.7404 44.0512 61.8325C43.7996 61.9134 43.6274 62.0773 43.346 62.0792C43.2544 62.0799 43.1749 62.0487 43.0867 62.0467C42.9087 62.0423 42.7456 62.1444 42.5755 62.1338C42.2926 62.1161 42.4157 62.0267 42.3171 61.8286C42.2247 61.6427 41.9896 61.5744 41.8066 61.5163C41.282 61.35 40.8452 61.4958 40.7691 60.8265C40.7456 60.621 40.7766 59.777 40.3869 59.8757C39.9318 59.9907 40.3322 60.9937 40.0498 61.2451C39.9123 61.3674 39.7047 61.3063 39.539 61.3426C39.267 61.4018 39.1478 61.608 38.85 61.5941C38.5988 61.5825 38.3649 61.4706 38.146 61.3595C37.8196 61.1937 37.4302 61.084 37.158 60.8312C36.785 60.4844 36.6214 59.9447 36.4624 59.476C36.2284 58.7857 36.1287 58.0978 36.0911 57.3739C36.078 57.1216 35.9712 56.9437 35.9265 56.7121C35.8791 56.4659 36.0193 56.4165 36.0516 56.1833C36.0829 55.9565 36.0678 55.7142 36.1153 55.4712C36.1837 55.1218 36.2075 54.7643 36.2738 54.4138C36.3835 53.8342 36.5498 53.2586 36.6863 52.6842C36.7287 52.5057 36.8055 51.9337 37.025 51.8788C37.1869 51.8382 37.5609 52.0802 37.7109 52.1512C38.0077 52.2916 38.2627 52.4856 38.5802 52.5829C38.7441 52.633 38.9509 52.6281 39.0584 52.7807C39.2283 53.0222 39.091 53.4953 39.1614 53.7807C39.2476 54.1301 39.533 54.2787 39.763 53.9277C39.8856 53.7407 39.853 53.5175 39.8695 53.3107C39.8929 53.0125 39.8982 52.9403 40.2198 52.9604C40.5456 52.9809 40.8637 53.1043 41.1978 53.1193C41.499 53.1328 41.8017 53.1245 42.1026 53.1079C42.8334 53.0678 43.5017 52.9485 44.187 52.6875C44.6513 52.5106 45.1896 52.124 45.7012 52.1377C46.4234 52.1569 46.2279 52.8277 46.3268 53.3295C46.387 53.6349 46.8961 54.5725 47.0917 53.8116C47.1883 53.4352 46.8661 52.8865 47.057 52.5466C47.2825 52.1449 48.1113 52.4782 48.4884 52.3852C48.7936 52.3099 49.3036 51.8757 49.0881 51.5012C48.986 51.3237 48.7877 51.3574 48.611 51.3441C48.2759 51.319 47.9431 51.2731 47.6109 51.224C47.4219 51.1961 47.133 51.1797 47.0574 50.9619C46.9933 50.7771 47.294 50.2977 47.3593 50.1209C47.5751 49.5354 47.653 49.0592 47.6539 48.4207C47.6541 48.133 47.6728 47.8294 47.6267 47.5448C47.6098 47.4405 47.4538 47.1 47.5268 47.0003C47.6251 46.8662 47.8261 47.0365 47.9068 47.1369C48.067 47.3371 48.0113 47.3211 47.9202 47.5285C47.786 47.8336 47.5253 48.4734 47.9675 48.7083C48.4299 48.9539 48.597 48.1238 49.0351 48.2149C49.2394 48.2573 49.441 48.5268 49.6056 48.6526C49.7983 48.8001 50.0064 48.9564 50.2328 49.0469C50.6044 49.1953 51.0219 49.0841 50.8718 48.6152C50.7534 48.2455 50.3789 47.9363 50.1111 47.6741C49.6845 47.2566 49.7038 47.0812 49.9986 46.5894C50.1219 46.3835 50.5956 45.5095 50.0466 45.4385C49.756 45.4008 49.4418 45.8735 49.2883 46.0544C49.0249 46.3648 48.8739 46.4981 48.4819 46.2489C48.0988 46.0052 47.921 45.8016 47.4576 45.7791C46.9245 45.7533 46.6846 44.9495 46.402 44.5368C45.6342 43.4156 44.4587 42.861 43.4675 42.002C42.9845 41.5833 42.6583 41.0355 42.291 40.5202C42.1161 40.2746 41.8903 40.0708 41.7477 39.8033C41.6581 39.6351 41.4151 39.2296 41.4784 39.0311C41.5571 38.784 41.9819 38.6315 42.1585 38.457C42.3069 38.3106 42.3861 38.128 42.6193 38.1839C42.827 38.2338 43.0141 38.5158 43.1838 38.6396C43.3504 38.7613 43.5384 38.8741 43.7231 38.965C44.0573 39.1295 44.4607 39.2174 44.4804 38.7172C44.4974 38.2845 44.1041 37.8211 43.8199 37.5291C43.6131 37.3167 43.2998 37.132 43.3408 36.7947C43.3611 36.6273 43.5027 36.3295 43.5854 36.1891C43.8703 35.7061 44.7402 36.0008 45.213 36.0318C45.7826 36.0692 46.4106 35.9732 46.8633 36.3776C47.011 36.5095 47.3532 36.7685 47.4257 36.9521C47.5101 37.1658 47.3723 37.2619 47.2957 37.4687C47.1967 37.7359 47.1286 38.2636 47.4136 38.4479C47.8892 38.7553 48.1372 37.8432 48.6316 38.0427C49.1004 38.2319 49.4282 38.7759 49.9633 38.862C50.6637 38.9746 50.2649 38.1036 50.0225 37.8473C49.7082 37.515 49.0986 37.1714 49.2982 36.6801C49.3552 36.5397 49.4855 36.2467 49.6026 36.1596C49.8321 35.9889 50.2018 36.0826 50.4645 36.0853C51.1274 36.0925 51.7532 36.0377 52.4029 35.9215C52.5988 35.8863 52.6433 35.8585 52.7814 36.005C52.9725 36.2075 53.0728 36.4715 53.2952 36.6706C52.974 37.0178 52.498 37.4278 52.7213 37.9624C52.9134 38.4223 53.3345 38.1967 53.6195 37.951C53.7533 37.8356 53.8915 37.5914 54.0688 37.5451C54.299 37.4849 54.5578 37.6948 54.7463 37.8013C55.0291 37.9613 55.634 38.4355 55.9554 38.1555C56.3803 37.7852 55.8775 37.2281 55.5847 36.9994C55.4077 36.8611 55.1718 36.7624 55.0228 36.5917C54.8246 36.3645 54.9409 36.3311 55.061 36.1264C55.2808 35.7517 55.2003 35.2692 55.552 34.9766C55.747 34.8143 56.0258 34.7123 56.2485 34.5933C56.4677 34.4761 56.7029 34.2436 56.9179 34.1545ZM60.5015 35.6114C60.416 35.5589 60.3303 35.5063 60.2449 35.4537C60.4404 35.3581 60.5694 35.3695 60.5015 35.6114ZM65.2205 40.1636C65.2549 39.9888 65.3893 39.6759 65.5744 39.8395C65.6935 39.9446 65.5633 40.3394 65.8468 40.2302C65.8614 40.4817 65.6747 40.4603 65.9501 40.684C65.6027 40.6437 65.1231 40.6594 65.2205 40.1636ZM51.7363 61.3618C51.8238 61.1262 51.8231 60.7611 52.0923 60.9763C52.1064 60.6911 52.0392 59.7867 52.5552 59.8235C52.7656 59.8384 52.7632 60.0246 52.8189 60.1859C52.9158 60.4673 53.0796 60.7236 53.2174 60.9858C52.7054 61.0066 52.193 61.1242 51.7363 61.3618ZM51.9039 64.6123C52.1966 64.8341 52.3433 64.5722 52.6195 64.4766C52.8745 64.3884 53.1391 64.4412 53.4216 64.3786C53.772 64.301 54.1845 64.3128 54.5268 64.3097C54.6111 64.309 54.7875 64.3224 54.8727 64.3323C55.0279 64.3501 55.014 64.3824 55.1748 64.4257C55.2369 64.4114 55.2995 64.4009 55.3628 64.3944C55.4403 64.391 55.5015 64.4232 55.5463 64.491C55.6908 64.5393 55.7433 64.5072 55.8817 64.541C56.2112 64.6217 56.4572 64.821 56.6725 65.0851C57.1107 65.6226 57.1237 66.4305 57.1136 67.0959C57.1108 67.2854 57.0964 67.4739 57.1173 67.6629C57.1363 67.8363 57.2584 68.0983 57.2086 68.2706C57.133 68.5314 56.8989 68.4727 56.6263 68.4844C56.4658 68.4913 56.3056 68.5951 56.1779 68.6044C56.0544 68.6133 56.0046 68.5676 55.8796 68.5395C55.5535 68.4663 55.1686 68.5708 54.8469 68.6598C54.5167 68.7513 54.2272 68.8414 53.8925 68.9061C53.6746 68.9482 53.4786 68.9722 53.2589 68.9997C53.0787 69.0223 53.0009 69.1175 52.8437 69.1567C52.6921 69.1944 52.5443 69.1379 52.3913 69.1676C52.1828 69.2081 52.0375 69.3616 51.8475 69.438C51.5857 69.5433 51.1671 69.3859 51.051 69.7108C51.0056 69.3975 50.7061 69.4826 50.483 69.4549C50.1156 69.4091 49.7536 69.2438 49.4002 69.1383C49.1104 69.0519 48.1085 68.2551 47.9166 68.5785C47.9169 68.5458 47.9517 68.3606 47.9215 68.3392C47.8145 68.2638 47.8154 68.3053 47.7003 68.2581C47.5243 68.1858 47.4501 68.1206 47.3242 67.9988C47.0697 67.7527 46.7271 67.6239 46.459 67.4007C45.7854 66.8397 45.5548 65.6842 45.3904 64.8798C45.1755 65.2621 45.2546 64.7716 45.2918 64.6076C45.3798 64.2209 45.2667 64.0301 45.2411 63.6565C45.2175 63.3127 45.3737 63.2447 45.683 63.2088C46.064 63.1645 46.4307 63.1026 46.8039 63.0072C47.1603 62.9161 47.5095 62.8133 47.8311 62.632C48.1254 62.4661 48.4342 62.4009 48.7352 62.2558C49.0671 62.0955 49.3926 61.9272 49.7274 61.7712C49.8783 61.7009 50.5429 61.1977 50.6583 61.2284C50.8951 61.2913 50.6715 61.7074 50.5993 61.8167C50.4138 62.0971 50.1091 62.2272 49.8343 62.4037C49.5865 62.5627 48.8347 63.3165 49.5979 63.2409C50.1036 63.1908 50.4462 62.659 50.7697 63.265C50.8839 63.4791 51.052 63.6508 50.9207 63.8719C50.7373 64.1805 50.2085 64.3275 49.9312 64.5352C49.6949 64.7121 49.2114 65.5464 49.6986 65.6359C49.8387 65.6615 50.0546 65.6283 50.1587 65.519C50.229 65.4454 50.224 65.2938 50.2951 65.2434C50.3958 65.1719 50.5913 65.2604 50.7062 65.2212C50.87 65.1653 50.9084 65.0757 50.9686 64.9178C51.1435 64.9979 51.146 65.1053 51.3456 65.002C51.4118 64.9678 51.4361 64.8421 51.5128 64.8086C51.6157 64.7636 51.6464 64.9112 51.7029 64.8894C51.856 64.8305 51.8554 64.7641 51.9039 64.6123ZM41.4081 62.1585C41.1149 62.1805 40.7946 62.2042 40.5444 62.0167C40.8484 62.0351 41.1166 62.104 41.4213 62.0409C41.5424 62.0159 41.7363 61.9012 41.8604 61.9411C42.3014 62.083 41.5255 62.1496 41.4081 62.1585ZM40.5937 36.2756C40.5894 36.1721 40.5019 34.7798 40.9759 35.3267C41.1057 35.4763 40.9658 35.6767 40.9473 35.8422C40.9162 36.1211 41.0136 36.4005 41.16 36.6353C41.2966 36.8543 41.5516 37.0461 41.5135 37.3317C41.4799 37.5823 41.2279 37.7962 41.1038 38.0041C40.7984 37.5212 40.6183 36.8568 40.5937 36.2756ZM39.5518 21.663C38.4533 21.7789 37.3603 21.9842 36.3012 22.3009C35.2613 22.6119 34.292 23.0981 33.3148 23.5638C33.1134 22.6987 32.9025 21.8357 32.7036 20.9699C32.6079 20.5531 32.5165 20.1353 32.4269 19.7171C32.3631 19.4199 32.1312 18.8655 32.228 18.5731C32.2794 18.4181 32.3471 18.4174 32.4576 18.3217C32.5251 18.2633 32.6426 18.1204 32.7126 18.0899C32.8829 18.0156 33.3203 17.9504 33.4946 17.961C33.6535 17.9706 33.7366 18.034 33.9 17.9881C34.0392 17.9491 34.1561 17.8417 34.2866 17.7828C34.6189 17.6329 35.0338 17.5826 35.3892 17.5032C35.7312 17.4269 36.0843 17.4099 36.4272 17.3343C36.7274 17.268 36.8701 17.0463 37.1263 17.0543C37.7928 17.0751 38.5299 16.9968 39.1913 16.837C39.9333 16.6577 40.7405 16.6924 41.5017 16.6732C41.805 16.6656 42.0182 16.5971 42.0198 16.9359C42.0215 17.3494 41.8569 17.8136 41.773 18.2172C41.5867 19.1122 41.4289 19.9822 41.3585 20.8909C41.3233 21.3455 41.1376 21.3137 40.7693 21.4532C40.3595 21.6082 39.9876 21.617 39.5518 21.663ZM33.7763 30.8451C34.047 30.8852 34.0159 30.1424 34.0357 29.9914C34.6811 31.2124 35.4078 32.3876 35.9764 33.6487C36.1093 33.9436 36.23 34.2453 36.3705 34.5366C36.4665 34.7361 36.6816 35.0039 36.6764 35.236C36.6709 35.4781 36.476 35.5688 36.2705 35.6585C36.0485 35.7555 35.9618 35.8039 35.8053 35.6918C35.6159 35.5559 35.4578 35.1375 35.3408 34.9358C35.1622 34.6279 34.9912 34.3156 34.8162 34.0056C34.4993 33.4436 34.1253 32.9056 33.8649 32.3157C33.621 31.763 33.2519 31.2874 32.9889 30.7446C32.7285 30.2069 32.3722 29.6972 32.0728 29.1709C32.3735 29.0454 32.7482 28.7318 33.0897 28.7493C33.4425 28.7673 33.434 29.109 33.4493 29.3936C33.4653 29.6958 33.3645 30.7839 33.7763 30.8451ZM34.643 36.3619C34.482 36.5535 34.1191 36.6661 33.8965 36.7724C33.5881 36.9196 33.2725 37.0505 32.9657 37.2006C31.9589 37.6935 30.9564 38.1447 29.9308 38.5973C29.4007 38.8312 28.877 39.0799 28.3597 39.3411C28.0887 39.4778 27.4915 39.9572 27.1798 39.9694C26.8223 39.9833 26.8139 39.2591 26.7352 38.9875C26.669 38.7602 26.5462 38.5832 26.4636 38.3678C26.43 38.2797 26.4561 38.213 26.4048 38.1259C26.3464 38.0265 26.1828 37.9464 26.0986 37.8608C25.7414 37.4968 25.4453 37.0334 25.1436 36.6233C24.8672 36.2476 24.3957 35.7773 24.2632 35.3169C24.0025 34.412 25.517 33.911 26.0965 33.5475C27.111 32.9109 28.1305 32.2569 29.0977 31.5497C29.5382 31.2275 29.9695 30.8925 30.4123 30.5732C30.6189 30.4242 31.1915 29.8446 31.4567 30.0512C31.5554 30.128 31.5573 30.3408 31.5985 30.4523C31.6886 30.6961 31.8253 30.9088 31.9637 31.1274C32.0867 31.321 32.2616 31.5212 32.3385 31.7372C32.4301 31.9948 32.4258 32.1407 32.5935 32.3717C32.8985 32.7919 33.0425 33.2767 33.3261 33.7051C33.5995 34.1181 33.8621 34.4228 34.041 34.8844C34.1435 35.1489 34.3054 35.3835 34.4484 35.6268C34.5158 35.7417 34.5862 35.8546 34.6466 35.9735C34.7547 36.1861 34.7928 36.1833 34.643 36.3619ZM25.9894 39.8966C25.7958 40.0356 25.511 39.802 25.3233 39.7988C25.2416 39.7974 25.1605 39.8613 25.106 39.8595C24.942 39.8546 24.8079 39.744 24.6569 39.6926C23.9599 39.4547 23.1288 39.4456 22.5334 38.9625C21.3505 38.0026 21.9144 36.0766 22.1299 34.829C22.1737 34.5745 22.2528 34.2222 22.0479 34.0138C21.8233 33.7854 21.4855 33.9217 21.2799 34.1066C21.0691 34.296 20.9257 34.5614 20.7504 34.7826C20.4712 35.135 20.1664 35.4681 19.8585 35.7952C18.7648 36.9573 17.6066 38.287 16.2535 39.1398C15.6908 39.4946 15.1815 39.9753 14.5647 40.2456C13.8228 40.5708 14.5844 39.3154 14.7178 39.1115C15.591 37.7764 16.8623 36.7197 17.9299 35.5477C18.1314 35.3265 18.4175 35.0284 18.4211 34.7097C18.4265 34.2313 18.0053 34.2742 17.6722 34.407C17.3608 34.5313 17.2047 34.8405 16.9541 35.0518C16.6421 35.3149 16.2776 35.5283 15.9303 35.7406C15.1813 36.1985 14.3862 36.5828 13.5935 36.9575C13.2227 37.1327 12.8502 37.3042 12.4777 37.4757C12.3754 37.5228 11.7642 37.9118 11.7934 37.5783C11.7974 37.5335 12.1873 37.0584 12.2354 37.0408C12.4755 36.9527 12.5945 37.2185 12.8082 36.8702C12.96 36.6228 12.981 36.4944 13.1953 36.3067C13.2318 36.2748 13.2568 36.1941 13.2864 36.1417C13.2828 36.1614 13.4456 36.0025 13.4145 36.0301C13.4573 35.9922 13.5194 35.9228 13.5541 35.8772C13.7217 35.6577 14.0437 35.6536 14.1893 35.4027C14.2449 35.3072 14.2134 35.1847 14.2804 35.0899C14.3742 34.9569 14.5805 34.9003 14.6906 34.7833C14.785 34.6828 14.8628 34.6009 14.9214 34.5394C14.9617 34.4971 15.0325 34.4674 15.0803 34.4189C15.1991 34.2983 15.1898 34.1915 15.3561 34.09C15.5054 33.9991 15.574 34.0842 15.6257 33.8589C15.8074 33.9757 15.7846 33.8047 15.8584 33.6822C15.9543 33.5229 16.0761 33.4519 16.2082 33.3366C16.499 33.0828 16.7716 32.7051 17.019 32.3857C17.6343 31.5913 18.1319 30.6625 18.3151 29.6659C18.359 29.4276 18.3832 29.1869 18.4007 28.9452C18.4099 28.8181 18.3686 28.5087 18.447 28.3842C18.5688 28.191 18.7999 28.2677 18.9758 28.1832C19.0355 28.1544 19.0945 28.0698 19.1506 28.0506C19.229 28.0237 19.3249 28.0499 19.4063 28.024C19.438 28.014 19.4453 27.9207 19.4975 27.9087C19.6001 27.8852 19.702 27.9226 19.8034 27.9239C20.0252 27.9269 20.2442 27.8877 20.4569 27.8168C20.6505 27.7523 20.8124 27.6043 21.0055 27.551C20.9858 27.5565 21.3238 27.5834 21.3056 27.5643C21.3218 27.4808 21.3379 27.3973 21.3541 27.3138C21.4824 27.4037 21.92 27.5223 22.0557 27.5018C22.2739 27.4687 22.2279 27.2714 22.4128 27.5306C22.5176 27.439 22.6222 27.3473 22.7269 27.2557C22.8062 27.5896 23.3524 27.4276 23.6 27.446C23.9488 27.4721 24.2236 27.4064 24.5415 27.5282C24.9282 27.6767 25.2673 27.833 25.6837 27.8735C25.9747 27.9017 26.0957 28.0389 26.3807 28.1236C26.7638 28.2374 26.7941 28.3628 26.6743 28.7556C26.5771 29.074 26.4932 29.3196 26.6351 29.6463C26.8869 30.2257 27.5711 30.4644 28.0123 30.8648C26.9788 31.5925 25.9585 32.3084 24.9595 33.0839C24.5409 33.4087 24.0958 33.7341 23.8574 34.2227C23.6376 34.6738 23.5129 35.2158 23.3806 35.6986C23.0771 36.8056 23.932 37.5505 24.8101 38.0375C24.9919 38.1381 26.2434 39.7142 25.9894 39.8966ZM24.285 41.2346C24.2231 41.0217 24.2312 40.9649 24.4361 40.8885C24.5136 40.8596 24.8108 40.8218 24.8589 40.9286C24.9678 41.1708 24.3955 41.1677 24.285 41.2346ZM32.9933 25.8069C33.0667 26.2794 33.1389 26.7519 33.2044 27.2254C33.2405 27.487 33.3225 27.7184 33.1283 27.9157C33.0179 28.0278 32.7502 28.0696 32.6093 28.1293C32.4061 28.2154 32.2081 28.314 32.0127 28.4168C31.6642 28.5998 31.3 28.7101 30.9561 28.8752C30.8065 28.9469 30.7178 29.0882 30.5883 29.1857C30.4112 29.3191 30.1957 29.384 30.0128 29.5108C29.686 29.7378 29.3866 30.0063 29.06 30.2347C28.69 30.4936 28.6129 30.4105 28.4051 30.028C28.2186 29.6846 27.9947 29.528 27.7261 29.2588C27.6216 29.1541 27.2478 28.5575 27.5653 28.5061C27.6467 28.4929 27.9278 28.6156 27.9915 28.6549C28.0883 28.7144 28.2429 29.0532 28.3216 29.0589C28.4634 29.0693 28.6448 28.6644 28.7332 28.5578C29.3121 27.8586 29.9489 27.1671 30.6197 26.5556C30.9674 26.2386 31.3326 25.9497 31.7267 25.6938C32.007 25.5119 32.2517 25.257 32.528 25.0844C32.5865 25.0337 32.6527 24.9974 32.7271 24.9756C32.8713 24.9099 32.9254 24.9666 32.8895 25.1457C32.9722 25.321 32.9632 25.6136 32.9933 25.8069ZM20.331 25.1879C20.4716 25.0442 20.6494 24.9293 20.7721 24.7689C20.8413 24.6784 20.887 24.5166 20.9662 24.4581C21.1041 24.3562 21.3013 24.4032 21.4617 24.2666C21.6166 24.1344 21.7526 23.9763 21.9039 23.8392C22.2318 23.5424 22.5703 23.2694 22.892 22.9672C23.0749 22.7954 23.2666 22.5726 23.429 22.4592C23.4722 22.4291 23.5204 22.3844 23.5661 22.3612C23.664 22.3117 23.7128 22.3621 23.8556 22.316C23.9501 22.2856 24.0176 22.1656 24.0933 22.1088C24.2735 21.9738 24.5083 21.9203 24.6817 21.7904C24.8551 21.6605 24.9385 21.4587 25.1772 21.3503C25.4659 21.2193 25.6823 21.3228 25.891 21.0723C25.9761 20.9701 25.9994 20.8414 26.1331 20.777C26.294 20.6993 26.4354 20.7817 26.5891 20.6935C26.6928 20.6339 26.7636 20.509 26.8706 20.4438C27.0622 20.3275 27.2742 20.3151 27.4533 20.1712C27.6045 20.0497 27.5205 20.0622 27.6996 20.0109C27.7783 19.9884 27.8656 19.9787 27.9496 19.9499C28.2188 19.8578 28.6583 19.7449 28.8177 19.4888C28.8986 19.6073 28.9263 19.6313 29.0576 19.5945C29.1266 19.5382 29.1898 19.4764 29.2474 19.4088C29.2896 19.4623 29.335 19.4656 29.3833 19.4184C29.6674 19.3204 29.928 19.1521 30.2078 19.0587C30.2474 19.0801 30.2871 19.1017 30.3266 19.1231C30.3818 19.1262 30.4042 19.0991 30.3937 19.0419C30.5038 19.0218 30.6306 18.9732 30.732 18.9288C30.9265 18.8438 31.1413 18.6418 31.3705 18.7141C31.7531 18.8348 31.7714 19.618 31.8374 19.9283C32.0001 20.6932 32.1639 21.4577 32.3273 22.2224C32.3938 22.5336 32.4522 22.8471 32.5397 23.153C32.5969 23.3529 32.7392 23.6477 32.6878 23.8602C32.6248 24.1208 32.3714 24.2056 32.1595 24.3261C31.8675 24.4922 31.5852 24.6764 31.3088 24.8677C30.1356 25.6797 29.2609 26.7963 28.429 27.942C28.2749 27.7172 27.8621 27.4017 27.6048 27.3004C27.4246 27.2296 27.2624 27.2867 27.083 27.2002C26.9551 27.1384 26.8488 27.0178 26.7278 26.9401C25.9892 26.4654 25.0976 26.073 24.2414 25.8847C22.4846 25.4981 20.7648 26.0967 19.0614 26.3808C19.407 25.904 19.9238 25.6034 20.331 25.1879ZM32.0902 12.2495C32.3908 11.2664 32.8971 10.3146 33.6176 9.57713C33.9809 9.20532 34.4079 8.88035 34.8864 8.67363C35.3028 8.49392 35.7979 8.32155 35.7915 8.89946C35.7774 10.154 35.4886 11.3943 35.4533 12.6509C35.419 13.8823 35.6244 14.8707 36.3671 15.8629C35.8965 15.9726 35.4262 16.0838 34.9574 16.2005C34.6013 16.289 34.2321 16.3884 33.8953 16.4492C33.5623 16.5092 33.256 16.5484 32.9268 16.6613C32.7049 16.7374 32.3572 16.9701 32.117 16.9196C31.7179 16.8357 31.8123 15.3989 31.7918 15.0537C31.7342 14.0789 31.8035 13.1878 32.0902 12.2495ZM39.3858 14.1424C39.9311 13.4782 40.4978 12.7034 41.4152 12.5801C42.3023 12.4608 42.6293 13.5283 42.5729 14.2481C42.5539 14.4916 42.5178 15.1241 42.3414 15.3214C42.1463 15.5397 41.8 15.3751 41.5521 15.3415C40.4822 15.1961 39.3853 15.4388 38.3123 15.4388C38.6701 15.0065 39.0297 14.576 39.3858 14.1424ZM43.7759 16.791C44.1481 16.8446 44.4452 16.9015 44.2655 17.3265C43.9058 18.1778 43.6294 18.9903 43.9447 19.9183C44.1854 20.6271 44.9478 21.4874 45.7095 21.6294C45.9765 21.6792 46.378 21.5901 46.5421 21.8622C46.6882 22.1045 46.5298 22.8312 46.5128 23.1002C46.4495 24.1026 46.1936 25.0972 45.547 25.8848C44.9715 26.5856 44.2695 27.1342 43.4327 26.4726C42.7272 25.9151 42.3107 24.9177 42.102 24.0653C41.9906 23.6103 41.977 23.1562 41.9557 22.6912C41.9369 22.28 41.8588 22.0191 42.3223 21.9338C42.4465 21.911 42.7569 21.9182 42.7573 21.7279C42.758 21.4722 42.4215 21.5681 42.2928 21.5551C41.7963 21.5054 42.0288 20.9261 42.0751 20.5515C42.1539 19.9135 42.2815 19.2826 42.3987 18.6511C42.4984 18.1131 42.5037 17.4081 42.7203 16.9052C42.8468 16.6115 43.5276 16.7553 43.7759 16.791ZM44.6899 18.6803C44.7464 18.3335 44.7764 17.9002 45.1194 17.7085C45.4962 17.4979 45.6849 17.841 45.8709 18.1213C46.364 18.8651 46.9099 19.5611 46.9907 20.4844C47.0003 20.5945 47.0474 20.8156 46.9416 20.8918C46.8944 20.9258 46.7817 20.8361 46.7087 20.8414C46.318 20.8696 46.0354 20.9746 45.6523 20.7533C44.9028 20.3201 44.5536 19.517 44.6899 18.6803ZM47.637 20.7572C47.5565 19.9498 47.1848 19.2338 46.7696 18.5522C46.5651 18.2161 46.1675 17.8487 46.0263 17.4936C45.9506 17.3034 46.0845 17.0679 46.3598 17.1495C46.4968 17.1901 46.7608 17.5549 46.8525 17.6811C47.0878 18.0055 47.2829 18.3672 47.469 18.7214C47.6681 19.0999 48.2337 20.489 47.637 20.7572ZM45.1696 12.7176C45.2131 11.958 45.2175 11.0857 45.7078 10.4553C46.0879 9.96648 46.7836 9.75371 47.3481 9.56475C48.1085 9.31012 49.0218 9.27082 49.8171 9.3531C50.517 9.42559 51.0453 9.90374 51.4772 10.4295C51.9165 10.9642 52.2568 11.6526 52.5589 12.2747C52.6344 12.4303 53.2756 13.4291 52.8419 13.4059C52.6699 13.3966 52.5204 13.0596 52.3886 12.9601C52.2855 12.8822 52.1632 12.8918 52.0706 12.8294C51.9714 12.7626 51.9929 12.7008 51.916 12.6183C51.3862 12.0506 50.899 12.3775 50.3276 12.6765C50.3009 12.4784 50.3477 12.1106 50.1826 11.9659C49.9667 11.7765 49.7411 12.0766 49.5862 12.2236C49.4452 12.3577 49.2714 12.6019 49.0938 12.6745C48.8632 12.7686 48.9416 12.6685 48.7413 12.5895C48.3381 12.4303 48.0279 12.9014 47.824 13.1753C47.748 13.2774 47.6236 13.5354 47.4874 13.563C47.3556 13.5896 47.3384 13.4955 47.2249 13.4608C46.9038 13.3625 46.8149 13.5923 46.7126 13.8776C46.5975 14.1984 46.4996 14.5076 46.3291 14.8072C46.0277 15.3374 45.8982 15.5119 46.1366 16.0974C45.7884 16.1493 45.7153 16.191 45.5426 15.8809C45.3649 15.5614 45.3187 15.2964 45.3299 14.9291C45.3532 14.1611 45.1247 13.4977 45.1696 12.7176ZM53.2524 16.3516C53.6169 17.0121 53.8486 17.9313 53.8447 18.6839C53.8428 19.0573 53.821 19.5165 53.6473 19.8552C53.4806 20.1802 53.1316 20.3429 52.8103 20.4813C52.0355 20.8152 51.1628 20.8113 50.3483 20.6625C49.9256 20.5851 49.5144 20.6351 49.1526 20.3803C48.8804 20.1883 48.552 20.0019 48.4722 19.6501C48.4389 19.5029 48.4904 19.3795 48.4797 19.235C48.4929 19.1662 48.488 19.0992 48.4649 19.0337C48.4174 19.0063 48.3694 18.9796 48.3212 18.9536C48.2831 18.8438 48.356 18.7215 48.3373 18.6069C48.3148 18.4686 48.2004 18.356 48.1468 18.2306C47.9995 17.8848 48.1047 17.6915 48.3806 17.4566C48.4466 17.4045 48.513 17.3529 48.5798 17.3018C48.6398 17.2066 48.7061 17.2062 48.7786 17.3005C48.91 17.3023 48.9061 17.3429 49.0443 17.3026C49.3469 17.2141 49.6008 16.891 49.8973 16.7775C50.0125 16.7333 50.1843 16.7709 50.2779 16.6895C50.3614 16.6168 50.3077 16.4642 50.3812 16.3928C50.6156 16.1646 50.9846 16.381 51.2015 16.0492C51.3785 15.7786 51.341 15.3946 51.3591 15.0874C51.9026 15.1916 52.138 15.7142 52.5845 15.977C52.6728 15.6335 52.6857 15.6438 53.0266 15.5495C52.8721 15.8362 53.1219 16.1152 53.2524 16.3516ZM53.6684 12.7052C53.7685 12.8347 53.8449 13.156 53.6684 13.187V12.7052ZM54.1323 13.8739C54.9621 13.8756 55.4924 14.9282 55.7347 15.5802C55.998 16.2892 56.2755 17.235 55.7841 17.9255C55.5956 18.1903 55.3644 18.2146 55.0611 18.1802C54.6956 18.1389 54.5083 18.0858 54.6514 17.694C54.9193 16.9599 54.7177 16.0265 54.2429 15.4119C54.896 15.2853 54.482 14.6842 54.1543 14.4593C53.7714 14.1967 53.4621 13.8725 54.1323 13.8739ZM35.1878 51.9247C34.9926 52.4442 34.7941 52.9622 34.6303 53.4975C34.475 54.0047 34.565 54.5763 34.372 55.0641C34.2532 55.0051 34.2192 54.9004 34.1159 54.8368C34.0523 54.7974 33.9414 54.7818 33.8868 54.7385C33.7929 54.6643 33.5651 54.3875 33.5034 54.2801C33.2902 53.9087 33.4324 53.305 33.5464 52.9233C33.6875 52.4506 33.9285 51.9967 34.2521 51.6242C34.4792 51.3631 34.6044 51.4461 34.9079 51.5748C35.0874 51.6508 35.2723 51.6994 35.1878 51.9247ZM33.7089 56.0237C33.5529 56.3401 33.2647 56.6011 33.0935 56.9201C32.9139 57.2551 32.7779 57.6325 32.5487 57.9388C32.3156 58.2511 32.106 58.1989 31.7848 58.3335C31.6695 58.3818 31.621 58.4714 31.5283 58.5414C31.3543 58.6722 31.1635 58.7525 30.9807 58.869C30.8507 58.5488 30.4534 56.9416 29.9478 56.976C29.5084 57.0059 29.7332 57.8474 29.7898 58.0956C29.8377 58.3053 29.8925 58.5183 29.9653 58.7208C30.0389 58.9252 30.2682 59.2315 30.1834 59.4556C30.0756 59.7404 29.8073 59.7217 29.673 59.5139C29.5607 59.3401 29.5036 59.1039 29.4208 58.9148C29.348 58.7486 29.0153 57.8386 28.7277 57.9798C28.4506 58.1156 28.8816 58.9978 28.9537 59.1711C29.1279 59.5895 29.4618 59.9917 29.0204 60.327C28.3504 60.836 27.5254 61.2192 26.7748 61.5861C26.3366 61.8002 25.9427 62.082 25.4828 62.2559C25.0557 62.4174 24.5621 62.4449 24.1492 62.6305C24.0476 62.6762 24.1157 62.7331 23.9673 62.7597C23.8428 62.7818 23.6253 62.7222 23.4919 62.7234C23.2707 62.7255 23.0492 62.7424 22.8286 62.7145C22.7042 62.6989 22.4212 62.5622 22.466 62.7878C22.2901 62.7389 22.2221 62.5607 22.0938 62.4495C21.9794 62.3503 21.8335 62.2965 21.7058 62.2186C21.442 62.0575 21.2447 61.874 21.1655 61.567C20.9797 60.8462 21.3726 60.096 21.8574 59.5935C22.1358 59.3052 22.4622 59.0654 22.7174 58.755C22.807 58.6461 22.8707 58.5195 22.9843 58.431C23.1235 58.3226 23.3144 58.3091 23.4492 58.1993C23.5495 58.1176 23.5795 57.9875 23.6846 57.9125C23.8401 57.8017 24.0219 57.8477 24.1688 57.7022C24.2525 57.6192 24.54 57.228 24.5199 57.1196C24.5986 57.146 24.6775 57.1726 24.7562 57.199C24.8041 56.9579 25.2184 56.6606 25.4228 56.5451C25.5262 56.4867 25.7276 56.4895 25.8045 56.4267C25.9068 56.343 25.8984 56.1677 25.9796 56.0627C26.2125 55.7619 26.6997 55.6268 27.0081 55.4173C27.4004 55.1507 27.7814 54.8487 28.1358 54.5331C28.8521 53.8954 29.4835 53.1543 29.9994 52.3446C30.2072 52.0184 30.4 51.6858 30.548 51.3284C30.6391 51.1084 30.7299 50.7172 30.9549 50.5896C31.1873 50.4578 31.7209 50.6363 31.9811 50.6551C32.3633 50.6828 32.959 50.6656 33.3016 50.854C33.6678 51.0556 33.3701 51.2221 33.1816 51.4624C32.9057 51.8139 32.7404 52.2442 32.6026 52.666C32.4965 52.9904 32.4766 53.3044 32.4072 53.6314C32.3339 53.9772 32.3346 54.444 32.5044 54.7616C32.6726 55.0761 33.8843 55.6679 33.7089 56.0237ZM19.2627 62.3982C18.4399 61.2741 19.1211 59.6287 19.926 58.7204C20.8971 57.6244 22.2793 57.0081 23.4146 56.1169C24.7275 55.0863 26.0758 54.129 27.239 52.9202C27.8287 52.3076 28.342 51.6472 28.8076 50.9353C29.2027 50.3308 29.4896 49.5255 30.2881 49.4381C29.8171 50.0272 29.7896 50.8759 29.4254 51.5317C29.0399 52.2263 28.4715 52.8039 27.8926 53.3378C26.6703 54.4651 25.3502 55.4978 24.03 56.5053C23.3562 57.0195 22.7009 57.5569 22.0294 58.0736C21.4279 58.5365 20.7961 58.9323 20.4495 59.6376C19.8515 60.8544 19.8158 62.657 21.1401 63.4066C20.4577 63.2702 19.6903 62.982 19.2627 62.3982ZM91.0026 11.7103C90.7592 11.2217 90.3029 11.0476 89.8448 10.8564C89.3964 10.6693 88.9866 10.4388 88.4893 10.3789C88.2682 10.3523 87.6445 10.4184 87.6154 10.0969C87.5911 9.82899 88.2427 9.56009 88.393 9.35597C88.6156 9.05342 88.7669 8.56219 88.6805 8.18006C88.5986 7.81768 88.2474 7.70319 87.9194 7.63751C86.8993 7.4334 85.8146 7.5835 84.7918 7.66739C84.9169 7.49172 85.0934 7.34763 85.1938 7.13722L85.356 7.47548C85.4483 7.28204 85.5484 7.09219 85.6633 6.91103C85.7409 6.9986 85.8187 7.08627 85.8964 7.17384C85.7673 6.71903 86.2015 6.72136 86.1559 6.33798C86.1381 6.18886 86.0374 6.12354 86.0127 6.00367C85.9642 5.76537 86.1476 5.61634 85.9389 5.39536C85.7066 5.14925 85.3267 5.24687 85.0563 5.26984C85.0224 5.2728 84.9732 5.34018 84.9293 5.34565C84.8685 5.35337 84.8335 5.26939 84.7583 5.27388C84.5567 5.28581 84.379 5.44292 84.1787 5.49064C83.25 5.7119 82.3211 6.1065 81.4299 6.47489C80.5226 6.84994 79.6318 7.28661 78.8408 7.87519C77.9941 8.50513 77.3826 9.31497 76.7063 10.1128C76.3885 10.4878 76.0597 10.8479 75.8178 11.2799C75.6928 11.5031 75.5798 12.2043 75.3547 12.3062C75.1103 12.4169 74.4958 12.1039 74.2459 12.0461C73.6575 11.9102 73.0719 11.8535 72.4688 11.8808C71.989 11.9024 71.4829 11.8895 71.0071 11.9484C70.7309 11.9826 70.0426 12.29 69.9984 12.6339C69.9789 12.7867 70.1534 12.9138 70.1924 13.0569C70.2516 13.2735 70.1539 13.503 70.222 13.72C70.361 14.1625 71.006 14.3253 71.3861 14.4646C72.4472 14.8538 73.5229 15.1557 74.595 15.504C75.0609 15.6555 75.4591 15.8966 75.8811 16.1386C76.2311 16.3392 76.5504 16.54 76.1969 16.9167C75.8621 17.2736 75.9038 17.4176 76.0036 17.9093C76.1087 18.4281 76.1452 18.9528 76.2823 19.4666C76.4188 19.9783 76.6739 20.467 76.6242 21.0084C76.5745 21.5481 76.352 22.1023 76.1438 22.5969C75.9337 23.0965 75.7016 23.5902 75.4731 24.0817C75.2619 24.5364 75.0331 24.9975 74.5443 25.1915C73.611 25.5619 72.4186 25.5032 71.4459 25.3686C70.3419 25.216 69.2014 24.9571 68.1573 24.5618C67.1534 24.1818 66.0492 23.599 65.2189 22.9103C64.7753 22.5425 64.295 22.27 63.8243 21.9407C63.3472 21.6071 62.985 21.1573 62.5671 20.7579C61.7481 19.975 60.7398 19.4356 59.7019 19.0052C58.5351 18.5214 57.3305 18.5717 56.0942 18.5193C56.2888 18.1357 56.5393 17.769 56.6312 17.3419C56.727 16.8971 56.6577 16.4138 56.597 15.9694C56.4792 15.1044 56.2561 14.3431 55.7119 13.6445C55.463 13.325 55.1724 13.0759 54.7579 13.0295C54.5068 13.0013 54.0427 13.1949 53.8614 12.9814C53.7816 12.8873 53.8003 12.6894 53.75 12.5735C53.7055 12.4706 53.616 12.367 53.5675 12.2553C53.36 11.7774 53.1011 11.3551 52.8424 10.9017C52.7396 10.7214 52.66 10.4553 52.5197 10.3036C52.4434 10.2211 52.3452 10.1836 52.3025 10.1232C52.2226 10.0102 52.1858 9.80368 52.1193 9.67619C52.0052 9.45798 51.8603 9.25521 51.6929 9.07513C51.4254 8.78731 51.0811 8.53331 50.7142 8.38992C50.5106 8.31025 50.3612 8.29141 50.1485 8.30308C50.0861 8.30648 50.0168 8.34255 49.9545 8.3378C49.8052 8.3264 49.8286 8.27275 49.7091 8.24781C48.9091 8.08065 47.8362 8.31519 47.0858 8.60311C46.2954 8.90637 45.6534 9.30626 45.173 10.0249C43.9931 11.7897 44.2681 14.0684 44.7686 16.0122C44.4659 15.9325 44.1643 15.8382 43.8587 15.7706C43.6716 15.7291 43.4161 15.7369 43.2489 15.6378C42.877 15.4172 43.1795 14.8513 43.1818 14.4856C43.1875 13.5564 42.7504 12.1034 41.7973 11.7109C40.8042 11.3019 39.5961 12.4498 38.9822 13.1008C38.5883 13.5184 38.2302 13.9685 37.8533 14.401C37.59 14.7034 37.2422 15.1854 36.7805 15.1065C35.7735 14.9342 36.0807 13.012 36.1254 12.3624C36.1961 11.3354 36.3468 10.2919 36.3476 9.2622C36.3481 8.6363 36.2402 7.79193 35.4741 7.71853C34.4198 7.61759 33.421 8.57978 32.8063 9.32007C31.1848 11.2721 30.8267 13.8524 31.2604 16.302C31.324 16.6611 31.527 17.1041 31.1397 17.3271C30.6308 17.62 29.9803 17.7973 29.4335 18.0125C28.2107 18.4932 27.0784 19.1345 25.9271 19.7613C24.7873 20.3819 23.6658 20.998 22.6374 21.7975C21.6123 22.5947 20.5976 23.4393 19.6637 24.3429C19.1984 24.7934 18.7492 25.2634 18.3255 25.7538C17.9268 26.2151 17.6038 26.7391 17.1704 27.1703C16.8754 27.4639 16.3327 27.8575 16.2679 28.3054C16.2155 28.6669 16.8232 28.9176 17.0974 29.0846C17.2854 29.1992 17.4157 29.1957 17.4293 29.3999C17.4461 29.6546 17.1785 30.0628 17.0832 30.3057C16.8405 30.9252 16.5233 31.4384 16.1062 31.9538C15.1824 33.0958 14.066 34.064 13.0064 35.0784C12.022 36.021 11.0572 36.9487 10.3355 38.1183C10.1587 38.4049 9.71866 38.9934 10.1369 39.2616C10.2451 39.3311 10.5772 39.386 10.6874 39.3115C10.824 39.2191 10.7547 39.0798 10.9161 38.9872C10.8757 39.2986 12.2851 38.6901 12.3948 38.6337C12.691 38.4814 12.9589 38.3029 13.2617 38.1664C13.4393 38.0863 13.4608 37.9748 13.5983 37.8854C13.6719 37.8376 13.6728 37.9017 13.7711 37.872C13.8597 37.8451 14.0676 37.8349 14.1337 37.7493C14.1355 37.7468 14.2077 37.5396 14.1463 37.5825C14.3864 37.4147 14.5283 37.6686 14.3842 37.9069C13.958 38.611 13.4192 39.129 13.2522 39.9752C13.1916 40.2826 13.0881 40.8531 13.2751 41.1333C13.2819 41.1435 13.3448 41.1138 13.3525 41.1247C13.3596 41.135 13.4283 41.2307 13.4565 41.2579C13.6217 41.4165 13.611 41.4872 13.8868 41.4805C14.0091 41.4776 14.253 41.4618 14.365 41.4064C14.4492 41.3648 14.4904 41.2619 14.5552 41.2254C14.6206 41.1882 14.613 41.1689 14.6744 41.1474C14.687 41.1428 14.7112 41.2508 14.7352 41.2463C14.8665 41.2215 14.9232 41.1427 15.0348 41.0793C15.3564 40.8966 15.6718 40.6957 15.978 40.5117C16.2864 40.3266 16.5167 40.0684 16.8237 39.8534C17.15 39.6249 17.4168 39.4497 17.6677 39.1327C17.8414 38.9131 18.0487 38.8331 18.1653 38.7251C18.3037 38.5967 18.5423 38.1013 18.7653 38.0424C18.8669 38.0155 18.9482 38.1058 19.0038 38.0688C19.0664 38.0272 18.9982 37.9475 19.0295 37.9007C19.0882 37.8133 19.0955 37.7988 19.1953 37.7186C19.3231 37.6161 19.4801 37.5886 19.5873 37.455C19.7065 37.3063 19.7229 37.1396 19.8696 37.0004C20.2225 36.6653 20.5366 36.3123 20.9106 35.9877C20.7662 36.7957 20.623 37.5979 20.735 38.4197C20.8434 39.2161 21.1802 39.5727 21.8414 39.9769C21.9869 40.0659 22.1396 40.1954 22.296 40.2584C22.3909 40.2968 22.5341 40.2739 22.6049 40.3022C22.8447 40.3975 22.7631 40.5928 22.7959 40.8128C22.8469 41.1538 23.1593 41.4162 23.3609 41.6819C23.5304 41.9054 23.8362 42.4137 24.1199 42.4909C24.376 42.5606 24.6177 42.2599 24.831 42.1319C25.1527 41.9389 25.5031 41.8006 25.8423 41.6428C26.5048 41.3349 27.1449 40.9673 27.8001 40.6416C28.0993 40.4928 28.4015 40.4323 28.7182 40.3362C29.0987 40.2208 29.4233 40 29.7881 39.8494C30.4441 39.5786 31.0727 39.2554 31.7248 38.971C33.0744 38.3824 34.5463 37.978 35.7472 37.0949C36.2905 36.6954 36.99 36.6529 37.5255 36.2646C38.0835 35.8599 37.7413 35.241 37.5024 34.7444C36.8495 33.3875 36.4599 31.9785 35.5612 30.7424C35.0943 30.1001 34.6628 29.4365 34.2556 28.7538C33.8954 28.1496 33.9027 27.4652 33.8123 26.7827C33.7518 26.3266 33.695 25.8685 33.6211 25.4144C33.5742 25.1257 33.4228 24.762 33.606 24.5005C33.8028 24.2193 34.2702 24.0997 34.5656 23.9514C34.9327 23.7671 35.2882 23.5688 35.6691 23.4127C36.5395 23.0563 37.4563 22.8096 38.3695 22.5918C38.6417 22.5269 39.8072 22.0625 40.0291 22.3345C39.7565 22.5173 39.677 22.8491 39.5547 23.1336C39.3727 23.5574 39.1849 23.9613 39.0521 24.4054C38.7777 25.3238 38.5443 26.2569 38.3206 27.1888C38.0984 28.114 37.8337 29.0466 37.7657 29.9999C37.7309 30.4865 37.7548 30.9733 37.7539 31.4604C37.753 31.9802 37.6456 32.4901 37.6647 33.0112C37.6775 33.3577 37.7065 33.7741 37.9088 34.0697C38.0962 34.3436 38.415 34.3741 38.6928 34.5206C39.0593 34.7139 39.2028 34.7963 39.2062 35.2169C39.2102 35.707 39.1786 36.1884 39.2243 36.6782C39.3835 38.3839 39.9546 40.4081 41.0945 41.7251C41.1703 41.8126 43.382 44.6118 43.6268 44.202C43.7954 44.4024 44.0476 44.4756 44.2551 44.6504C44.5812 44.9249 44.9013 45.1444 45.171 45.4844C45.6619 46.1032 46.0792 46.8284 46.202 47.6196C46.3074 48.3006 46.244 49.1147 45.8613 49.7049C45.4773 50.2969 44.6565 50.6854 44.0369 50.9769C43.2224 51.36 42.3958 51.403 41.5115 51.307C41.0751 51.2596 40.6423 51.1856 40.2091 51.1157C40.0289 51.0866 39.8187 51.0865 39.648 51.0183C39.4651 50.9454 39.4031 50.8647 39.2205 50.8557C39.084 50.8489 39.0095 50.8792 38.8653 50.849C38.6868 50.8116 38.4929 50.7435 38.3149 50.6976C38.117 50.6465 37.9546 50.5737 37.7722 50.4799C37.6034 50.393 37.4131 50.3762 37.2506 50.294C36.9704 50.1521 36.884 49.9149 36.5051 50.0464C36.105 50.1851 36.1887 50.5324 35.9333 50.7704C35.7064 50.982 35.4253 50.7864 35.1994 50.6606C34.867 50.4754 34.5218 50.3213 34.1679 50.1811C33.7856 50.0297 33.3951 49.8979 32.9972 49.7936C32.5621 49.6796 32.0841 49.6571 31.6649 49.491C31.2965 49.3453 31.138 49.0631 30.8711 48.7996C30.5904 48.5224 30.2096 48.4168 29.8205 48.4415C29.1119 48.4865 28.6279 49.2552 28.2536 49.789C27.2078 51.2803 26.0518 52.5508 24.6539 53.7224C23.9859 54.2819 23.2331 54.7579 22.5871 55.3387C22.3147 55.5837 22.1168 55.8134 21.7942 55.9959C21.3704 56.2354 20.9858 56.5361 20.5806 56.8063C18.9959 57.863 17.8335 59.4025 18.2717 61.4126C18.469 62.3174 18.863 62.9525 19.5992 63.497C19.9335 63.7441 20.2394 63.9497 20.6652 63.9354C21.0672 63.9219 21.4219 63.9079 21.1851 63.4278C21.4851 63.521 21.7362 63.7511 22.0638 63.869C22.4411 64.0045 22.9321 64.0892 23.3328 64.0974C23.9744 64.1105 24.729 63.7711 25.2908 63.6272C25.4479 63.5871 25.7506 63.5212 25.9295 63.3731C26.0718 63.2553 26.0409 63.1159 26.2564 63.06C26.5386 62.9867 26.6462 63.0724 26.9165 62.9008C27.3087 62.6516 27.734 62.5036 28.1408 62.2741C28.6889 61.9647 29.2158 61.6159 29.7588 61.2973C29.8312 61.4975 30.2566 62.6873 30.5194 62.1138C30.748 61.6144 30.0057 61.187 30.4569 60.6814C30.8875 60.1994 30.9774 60.7063 31.395 60.93C31.9748 61.2407 31.8878 60.6603 31.7192 60.3167C31.6519 60.1792 31.5101 59.9719 31.5519 59.8116C31.6323 59.5019 31.882 59.6836 32.0783 59.7152C32.3874 59.7651 32.6372 59.6797 32.8693 59.4717C33.0628 59.2981 33.3829 59.1483 33.4999 58.9196C33.5583 58.8051 33.5686 58.6478 33.6172 58.5262C33.6814 58.366 33.7272 58.4049 33.7506 58.2061C33.7282 58.1033 33.7193 57.9993 33.7238 57.8939C33.7746 57.8836 33.8252 57.8733 33.8758 57.8629C33.8774 57.8557 33.881 57.6551 33.8606 57.685C33.9079 57.616 34.0096 57.5868 34.0681 57.491C34.1218 57.4029 34.0718 57.2341 34.0934 57.1301C34.1372 56.9196 34.2566 56.7497 34.3541 56.5621C34.5605 57.4382 34.5008 58.3518 34.6979 59.2284C34.8599 59.948 35.2287 60.5932 35.6589 61.1832C35.8584 61.4568 36.1224 61.6508 36.3311 61.9108C36.5078 62.1307 36.5961 62.3243 36.8568 62.4544C37.0303 62.5407 37.2254 62.5852 37.4041 62.6597C37.5185 62.7075 37.7786 62.9271 37.8859 62.9232C37.7925 62.9267 38.0614 62.935 37.9991 62.9243C38.0037 62.9251 37.9672 62.8069 37.9997 62.8087C38.3896 63.1792 38.7969 63.1801 39.2482 63.4104C39.4549 63.5159 39.5322 63.5094 39.7526 63.5483C40.0381 63.5989 40.2784 63.7623 40.5518 63.7797C40.9727 63.8065 41.4467 63.8633 41.8855 63.8477C42.0049 63.8433 42.2293 63.7663 42.3229 63.8709C42.3847 63.9401 42.2674 64.4402 42.26 64.5547C42.1829 65.7554 42.3428 67.016 42.8477 68.1148C43.2664 69.0258 43.7128 70.1035 44.4532 70.7992C45.274 71.5703 46.4238 72.1138 47.5216 72.3218C48.737 72.552 49.9418 72.3796 51.161 72.308C52.3981 72.2354 53.5426 72.0594 54.7356 71.6995C55.845 71.365 56.8959 70.9289 57.9574 70.4689C58.6794 70.1561 59.5948 69.7059 59.2164 68.7564C59.1249 68.5268 58.77 67.8885 58.4559 68.2034C58.1781 68.4821 58.6425 69.0095 58.8527 69.1865C57.2684 70.2951 55.3458 70.6618 53.492 71.0545C52.4739 71.2702 51.471 71.2611 50.4354 71.2641C49.5579 71.2666 48.6804 71.2919 47.8086 71.1689C47.0199 71.0577 46.1015 70.849 45.5145 70.2704C44.9005 69.665 44.3195 68.9422 43.9004 68.187C43.4406 67.3581 43.329 66.462 43.2918 65.5273C43.2723 65.0352 43.2503 64.537 43.3016 64.0461C43.3389 63.6898 43.5202 63.6474 43.6101 63.3659C43.8179 63.658 43.9547 63.55 44.2099 63.3793C44.3748 63.8414 44.3013 64.3215 44.2729 64.798C44.2454 65.2622 44.3071 65.7329 44.3637 66.1938C44.4597 66.9775 44.834 67.7947 45.3087 68.4256C45.5233 68.7109 45.8449 68.8313 46.1359 69.0283C46.5069 69.2794 46.8915 69.5133 47.2788 69.7387C48.008 70.1631 48.8038 70.526 49.6257 70.5899C49.9136 70.6124 50.123 70.7629 50.4661 70.7418C50.6698 70.7294 50.8749 70.6594 51.0782 70.6649C51.2819 70.6705 51.4568 70.7359 51.666 70.7206C52.5355 70.6575 53.4318 70.3717 54.2926 70.2147C55.2247 70.0448 56.1625 69.8618 57.0523 69.5263C57.4378 69.3809 57.7562 69.1933 57.9714 68.828C58.1251 68.5669 58.0849 68.0988 58.3713 67.9427C58.1837 67.6998 58.2534 67.657 58.4155 67.4399C58.4911 67.3386 58.7354 67.0707 58.4392 67.0755C58.5292 66.6843 58.3786 66.306 58.3144 65.9233C58.2868 65.7581 58.2943 65.5078 58.1924 65.3655C58.1329 65.2826 58.034 65.281 57.9808 65.2199C57.9259 65.2187 57.8829 65.1957 57.8521 65.1511C57.8484 65.0858 57.8789 65.0459 57.9434 65.0316C57.9285 64.9023 58.0239 64.9487 57.9285 64.7465C57.7984 64.4704 57.5516 64.2301 57.3178 64.0423C57.1187 63.8824 56.972 63.5984 56.7421 63.5131C56.4429 63.402 56.1292 63.2814 55.8148 63.1782C55.1021 62.9444 54.3957 62.855 53.6479 62.9847C53.3054 63.0441 52.968 63.1169 52.6373 63.2231C52.4438 63.2853 52.1478 63.4532 51.9763 63.2722C51.9175 63.2101 51.7946 62.6827 51.8023 62.6257C51.8329 62.3969 52.2985 62.3045 52.4683 62.2247C52.7279 62.1027 53.2086 61.9722 53.3734 61.7301C53.4425 61.6286 53.3644 61.1974 53.3757 61.1897C53.4846 61.1161 53.9417 62.163 54.0662 62.2345C54.2462 62.3377 54.752 62.2012 54.938 62.1807C55.4932 62.1195 56.0576 62.0848 56.6013 61.9519C57.6441 61.697 58.6679 61.3029 59.6826 60.9545C61.6131 60.292 63.4767 59.4187 65.2122 58.334C66.0226 57.8274 66.8278 57.1799 67.4445 56.4442C67.7227 56.1124 67.9193 55.719 68.2032 55.3936C68.5309 55.0182 68.4276 54.6797 68.5745 54.2096C68.8718 53.2581 69.2329 52.3937 69.3948 51.3965C69.5615 50.3698 69.6302 49.3215 69.5841 48.2821C69.4927 46.2277 69.3934 44.2799 68.4937 42.3923C67.6691 40.6624 66.6006 38.9721 65.3303 37.5399C65.035 37.2071 64.7231 36.89 64.3603 36.6311C63.9698 36.3522 63.54 36.1335 63.1865 35.8042C62.8964 35.5339 62.6537 35.2156 62.3503 34.959C61.9778 34.6443 61.5349 34.5052 61.0986 34.3041C60.6804 34.1115 60.299 33.861 59.8713 33.6856C59.6111 33.579 59.3475 33.4806 59.0761 33.4061C58.8757 33.3511 58.6093 33.3477 58.4259 33.2432C58.1359 33.0778 57.8391 32.5967 57.6496 32.3248C57.3731 31.9283 57.2233 31.467 57.0918 31.0059C56.9318 30.445 56.783 29.8807 56.6266 29.3187C56.573 29.1267 56.3732 28.4584 56.7718 28.6206C56.8884 28.668 56.9977 28.8789 57.0876 28.969C57.2578 29.14 57.468 29.2927 57.6792 29.409C58.0199 29.5965 58.3747 29.8224 58.7013 29.9516C58.9892 30.0655 59.2853 30.2888 59.5537 30.4494C59.5944 30.4738 59.6064 30.5577 59.659 30.5812C59.7826 30.6363 59.865 30.4843 59.9819 30.5215C60.1415 30.5724 60.1677 30.7233 60.2563 30.8433C60.3847 31.0174 60.4512 31.0312 60.6474 31.1208C60.8655 31.2204 61.0257 31.4174 61.2384 31.515C61.4969 31.6335 62.0656 31.5416 62.1045 31.9502C62.506 31.6869 63.0098 32.1981 63.2604 32.4633C63.5127 32.0746 63.9596 32.5297 64.3414 32.4006C64.1302 32.6953 64.1685 32.666 64.5019 32.7024C64.7833 32.7333 64.9518 32.9208 65.2299 33.0298C65.4226 33.1052 65.6354 33.2321 65.8356 33.2852C66.0249 33.3355 66.1683 33.2228 66.3331 33.251C66.4469 33.2704 66.5549 33.369 66.663 33.3959C66.8001 33.4302 66.9953 33.4718 67.1502 33.5087C67.3387 33.5536 67.5263 33.5123 67.7143 33.548C67.9337 33.5897 68.123 33.7208 68.3457 33.7634C68.5941 33.8108 68.8523 33.7791 69.0992 33.8396C69.3242 33.8946 69.461 33.9579 69.694 33.9602C70.0417 33.9637 70.4297 34.0098 70.773 33.9704C70.9558 33.9494 71.0571 33.8564 71.264 33.9473C71.402 34.008 71.4846 34.1953 71.6727 34.1095C71.4742 34.0297 71.6485 33.7188 71.8673 33.9569C71.9191 33.8233 71.9525 33.7488 72.0965 33.705C72.0893 33.8357 72.068 33.9669 72.2341 33.9943C72.2469 33.9033 72.2597 33.8125 72.2724 33.7214C72.6335 33.9973 72.719 34.0947 73.0598 33.758C73.0507 33.8683 73.0044 33.993 73.116 34.071C73.1874 33.9518 73.2589 33.8326 73.3304 33.7135C73.4512 34.0981 74.0275 33.9654 74.3068 33.8972C74.4152 33.8708 74.7145 33.829 74.7852 33.7398C74.8342 33.6781 74.8282 33.6297 74.8463 33.5918C74.8624 33.5581 74.6788 33.4754 74.8351 33.4271C74.9528 33.3906 75.0445 33.6496 75.1827 33.6393C75.306 33.6301 75.3558 33.4207 75.4444 33.3782C75.4529 33.3743 75.5131 33.4627 75.5548 33.4433C75.6196 33.4133 75.6565 33.334 75.7281 33.3059C75.8831 33.245 76.0835 33.2602 76.257 33.188C76.4771 33.0966 76.699 33.053 76.9236 32.9776C77.2085 32.8821 77.3377 32.6943 77.5689 32.5408C77.6231 32.5047 77.6796 32.5257 77.7328 32.5003C77.8045 32.4659 77.8797 32.3855 77.9651 32.3476C78.2328 32.2284 78.4615 32.1474 78.7155 31.983C78.942 31.8364 79.2409 31.7281 79.4425 31.5522C79.6103 31.4057 79.7008 31.1919 79.8696 31.0429C80.1119 30.829 80.7382 30.5606 80.6366 30.1427C81.042 30.2048 81.1412 29.9415 81.2899 29.6511C81.4314 29.3748 81.7215 29.292 81.9112 29.04C81.9932 28.9311 82.1251 28.7801 82.1704 28.6558C82.1974 28.5819 82.1298 28.5047 82.148 28.4543C82.2322 28.2221 82.5566 28.1208 82.7068 27.9114C82.8978 27.645 82.9592 27.3081 83.1186 27.0345C83.1499 26.9807 83.2272 26.9487 83.257 26.8913C83.2763 26.8544 83.2362 26.763 83.2595 26.7268C83.3151 26.6408 83.4025 26.6111 83.4584 26.5314C83.5935 26.3385 83.6181 26.0643 83.7396 25.8456C83.7694 25.7918 83.8736 25.6414 83.8867 25.6093C83.9306 25.5016 83.9173 25.4309 83.94 25.3111C83.9467 25.275 84.0161 25.0665 84.0303 25.0367C84.0749 24.9437 84.118 24.93 84.1862 24.8278C84.3567 24.5722 84.4625 24.1708 84.4765 23.8604C84.4826 23.7288 84.4389 23.5927 84.4864 23.4672C84.5273 23.3586 84.6536 23.2916 84.7012 23.1779C84.8261 22.8797 84.8057 22.4582 84.8401 22.1392C84.8774 21.7916 84.9883 21.4489 85.0188 21.1038C85.0337 20.9368 84.9556 20.7889 84.9613 20.6315C84.9679 20.4513 85.0611 20.4177 85.097 20.2677C85.138 20.0965 85.078 19.8993 85.1146 19.7158C85.1487 19.545 85.1982 19.3869 85.2123 19.2118C85.2491 18.7556 85.1973 18.2783 85.1775 17.8219C85.1698 17.6448 85.1464 17.46 85.193 17.2866C85.2306 17.1471 85.3841 16.991 85.379 16.8397C85.3633 16.3721 84.9905 16.7768 84.7763 16.7447C84.5271 16.7074 84.4813 16.1465 84.4157 15.9338C84.2552 15.414 84.0948 14.8943 83.9344 14.3747C84.6991 14.1749 85.4942 14.2325 86.275 14.1785C87.0422 14.1256 87.7912 13.9586 88.5351 13.7704C89.1632 13.6117 89.8504 13.5196 90.4147 13.1805C90.8887 12.8959 91.2795 12.2661 91.0026 11.7103Z" fill="black"/>
<path fill-rule="evenodd" clip-rule="evenodd" d="M16.7398 21.7711C17.0457 21.6116 16.9686 21.3911 17.1932 21.1863C18.4504 20.0399 19.9259 19.039 21.4046 18.2125C22.9625 17.3416 24.7106 16.9729 26.3029 16.2012C26.5171 16.0974 26.7954 15.9351 26.7155 15.646C26.6221 15.3081 26.3014 15.4636 26.0729 15.5434C25.3112 15.8091 24.5007 15.9091 23.7282 16.1426C22.0792 16.6408 20.535 17.5001 19.1382 18.5058C18.3255 19.0907 17.547 19.7375 16.8531 20.4641C16.5975 20.7315 16.2567 21.0435 16.1902 21.4287C16.1079 21.9055 16.3888 21.9542 16.7398 21.7711Z" fill="black"/>
<path fill-rule="evenodd" clip-rule="evenodd" d="M21.5019 51.744C21.4946 51.3227 21.0372 51.4758 20.802 51.5324C19.8455 51.7628 18.9904 51.9392 18.1439 52.4727C16.5729 53.4626 15.3826 54.9666 14.6125 56.631C14.5099 56.8525 14.097 57.5544 14.4279 57.7633C14.6461 57.9011 14.7785 57.4999 14.86 57.3508C15.2747 56.5926 15.8301 55.9214 16.3886 55.2625C17.6284 53.7997 19.1188 52.8713 20.902 52.1934C21.1208 52.1103 21.5074 52.0503 21.5019 51.744Z" fill="black"/>
<path fill-rule="evenodd" clip-rule="evenodd" d="M74.3672 41.3951C74.0363 40.7273 73.5013 39.9031 72.761 39.628C72.3514 39.4758 72.1091 39.7277 72.2307 40.1485C72.3273 40.4832 72.6501 40.6467 72.891 40.8687C73.5111 41.4399 73.893 42.2926 74.1195 43.0845C74.3589 43.9215 74.4066 44.8299 74.4024 45.6965C74.4001 46.154 74.2784 46.5517 74.2123 46.997C74.1864 47.172 74.1421 47.558 74.3426 47.6672C74.7869 47.9095 74.9922 46.6447 75.0376 46.4014C75.2047 45.5044 75.1886 44.6784 75.0478 43.7828C74.919 42.9638 74.7383 42.1442 74.3672 41.3951Z" fill="black"/>
<path fill-rule="evenodd" clip-rule="evenodd" d="M73.0961 9.3012C73.2769 9.05662 73.145 8.71424 73.1989 8.43538C73.2552 8.14311 73.4233 7.84744 73.5655 7.59177C73.8728 7.0398 74.2155 6.49776 74.5806 5.98293C74.9577 5.45127 75.4176 4.99827 75.8183 4.48747C75.9539 4.31467 76.194 4.06768 76.1355 3.8597C76.0407 3.52295 75.8342 3.68707 75.6687 3.8282C74.7643 4.59987 73.9678 5.55132 73.3244 6.55065C73.0192 7.02494 72.7306 7.54434 72.6296 8.10696C72.5775 8.39753 72.577 8.70072 72.6629 8.98521C72.7168 9.16401 72.8789 9.59508 73.0961 9.3012Z" fill="black"/>
<path fill-rule="evenodd" clip-rule="evenodd" d="M17.3579 50.4629C17.8111 50.4209 18.2669 50.4058 18.7212 50.3825C19.0575 50.3651 19.4357 50.3859 19.7443 50.2234C20.0549 50.0601 19.9199 49.8152 19.6617 49.7789C19.5132 49.7581 19.2627 49.8586 19.1036 49.8655C18.9313 49.8729 18.7581 49.8676 18.5857 49.8683C18.0818 49.8702 17.5388 49.8663 17.053 50.0343C16.8943 50.0893 16.6539 50.174 16.5886 50.356C16.449 50.7452 17.1477 50.4824 17.3579 50.4629Z" fill="black"/>
<path fill-rule="evenodd" clip-rule="evenodd" d="M21.3264 14.8437C21.9846 14.7646 22.6207 14.5667 23.2692 14.4405C23.8857 14.3207 23.9906 13.833 23.2608 13.8549C23.0157 13.8622 20.6528 14.3119 21.3264 14.8437Z" fill="black"/>
<path fill-rule="evenodd" clip-rule="evenodd" d="M75.7131 39.3026C75.2709 39.1916 75.4996 39.6837 75.6365 39.8359C75.8895 40.1172 76.0278 40.3279 76.103 40.7031C76.1469 40.9215 76.1057 41.4146 76.2905 41.5816C76.4725 41.746 76.485 41.6368 76.5173 41.4339C76.6084 40.8618 76.4264 39.4819 75.7131 39.3026Z" fill="black"/>
<path fill-rule="evenodd" clip-rule="evenodd" d="M70.8587 8.16111C70.984 8.0279 70.8496 7.44858 70.8644 7.27879C70.8825 7.07308 70.931 6.89899 70.9922 6.70594C71.0219 6.61234 71.1712 6.28194 71.0907 6.17935C70.9793 6.03714 70.794 6.27744 70.7353 6.37204C70.5446 6.67989 70.5001 7.19318 70.5318 7.53984C70.5432 7.66533 70.6188 8.41597 70.8587 8.16111Z" fill="black"/>
<path fill-rule="evenodd" clip-rule="evenodd" d="M44.8228 57.0133C44.8436 56.6851 45.1585 56.4577 45.1594 56.1088C45.1606 55.7167 44.8976 55.5469 44.5702 55.8017C44.3727 55.9554 44.2189 56.3297 43.9518 56.3787C43.4162 56.4773 43.2061 55.5119 42.6784 55.6236C42.2216 55.7203 42.4617 56.5075 42.5995 56.7732C42.7456 57.0547 43.0109 57.2522 42.9245 57.5986C42.8219 58.0098 42.4701 58.2469 42.607 58.7164C42.8613 59.5887 43.4132 58.7731 43.7452 58.499C43.9817 58.3035 44.1247 58.3383 44.3544 58.5299C44.669 58.7923 44.9095 58.9705 45.2911 59.1473C45.6276 59.3033 45.9522 59.4121 45.9627 58.8889C45.971 58.4773 45.6613 58.0678 45.3894 57.7887C45.1638 57.557 44.7997 57.3786 44.8228 57.0133Z" fill="black"/>
<path fill-rule="evenodd" clip-rule="evenodd" d="M38.9261 55.7119C38.5324 55.2908 38.0351 56.3651 37.7169 56.4839C37.2011 56.6766 37.0824 55.6439 36.6076 55.6763C36.238 55.7017 36.2672 56.2331 36.3477 56.4754C36.4343 56.7364 36.6935 56.9496 36.7369 57.217C36.8036 57.6267 36.031 58.4458 36.5702 58.8415C37.0305 59.1794 37.2019 58.0378 37.7773 58.5036C38.0598 58.7322 38.8503 59.5831 39.2419 59.1597C39.7047 58.6592 38.604 57.8046 38.4031 57.424C38.1312 56.9086 39.5031 56.3291 38.9261 55.7119Z" fill="black"/>
<path fill-rule="evenodd" clip-rule="evenodd" d="M48.4649 41.0783C48.3519 41.0283 48.1695 41.111 48.0473 41.1057C47.9161 41.1002 47.7795 41.0403 47.6501 41.0182C47.3689 40.9699 46.8744 41.0397 46.6749 40.7883C46.4713 40.5318 46.6261 40.0168 46.5391 39.7048C46.4917 39.535 46.437 39.3256 46.2092 39.4013C45.9449 39.4891 45.9513 39.9761 45.9198 40.1897C45.8733 40.5048 45.8358 40.7452 45.5201 40.8573C45.2863 40.9403 45.0404 40.8985 44.8515 41.0912C44.713 41.2323 44.6196 41.4901 44.728 41.6745C44.8907 41.9516 45.2432 41.8081 45.4877 41.8957C45.8607 42.0293 45.772 42.6406 45.8484 42.9916C45.8974 43.2171 46.005 43.8487 46.3278 43.8385C46.7679 43.8247 46.597 42.9374 46.5726 42.6785C46.5479 42.4157 46.489 42.1929 46.7812 42.1111C47.0281 42.0423 47.3729 42.1702 47.6279 42.1686C47.9499 42.1667 48.3294 42.0855 48.5237 41.796C48.6346 41.6304 48.705 41.1846 48.4649 41.0783Z" fill="black"/>
<path fill-rule="evenodd" clip-rule="evenodd" d="M64.6381 51.9981C65.3379 52.0587 64.9138 52.9239 65.3782 53.2678C65.8212 53.5959 65.8808 52.6902 65.8807 52.4317C65.8804 51.8053 66.6397 52.0368 67.102 51.9331C67.4964 51.8447 67.9272 51.4337 67.4561 51.0836C67.1161 50.8308 66.5523 50.9481 66.1576 50.8812C65.6227 50.7905 65.7816 50.4321 65.7698 50.0192C65.7655 49.8678 65.7135 49.328 65.5186 49.2855C65.1617 49.2076 65.1405 50.2129 65.1164 50.4042C65.0146 51.2136 64.4605 50.7205 64.0203 51.1262C63.4449 51.6566 64.2212 51.962 64.6381 51.9981Z" fill="black"/>
<path fill-rule="evenodd" clip-rule="evenodd" d="M31.3569 36.908C30.2636 37.807 29.0221 37.6782 28.0216 36.7104C27.5985 36.3011 27.3428 35.8886 27.3807 35.2897C27.4146 34.7508 27.5723 34.1553 28.0025 33.7913C28.3646 33.4845 29.0478 33.3745 29.5064 33.3315C30.1492 33.2716 30.7243 33.6227 31.169 34.0614C31.5562 34.4435 32.0088 34.9303 32.0685 35.4975C32.1313 36.0943 31.7924 36.5496 31.3569 36.908ZM31.5232 33.3303C30.5425 32.3828 28.8035 32.4779 27.791 33.342C26.6545 34.3119 26.4602 36.1339 27.5524 37.1965C28.7033 38.3163 30.2227 38.1955 31.441 37.2666C32.0945 36.7684 32.4491 36.1291 32.5402 35.3088C32.6261 34.5336 32.0594 33.8484 31.5232 33.3303Z" fill="black"/>
<path fill-rule="evenodd" clip-rule="evenodd" d="M50.4856 17.0208C50.3756 17.3797 50.4518 17.7619 50.4713 18.1275C50.1605 17.9323 49.9669 17.5844 49.6332 17.4227C49.4731 17.8664 50.2707 19.1356 50.7728 18.7195C51.2321 18.3389 50.8931 17.2765 50.4856 17.0208Z" fill="black"/>
<path fill-rule="evenodd" clip-rule="evenodd" d="M52.1169 19.2089C51.8695 19.3014 51.6395 19.2758 51.3953 19.3232C51.2344 19.3545 51.2136 19.2626 51.1926 19.4476C51.1483 19.8423 51.783 19.995 52.0689 19.9895C52.4179 19.9827 52.8003 19.7472 52.7666 19.364C52.7315 18.9647 52.386 19.1084 52.1169 19.2089Z" fill="black"/>
<path fill-rule="evenodd" clip-rule="evenodd" d="M52.3197 17.5499C52.2074 17.4475 51.9487 17.0612 51.7588 17.1273C51.6133 17.178 51.7161 17.3524 51.7588 17.4397C51.9186 17.7671 52.2323 18.0456 52.4828 18.3083C52.2973 18.3744 51.9398 18.4169 52.0342 18.7035C52.121 18.9668 52.5143 18.9263 52.7028 18.8154C53.3483 18.4357 52.6427 17.8441 52.3197 17.5499Z" fill="black"/>
<path fill-rule="evenodd" clip-rule="evenodd" d="M52.9714 16.9284C53.0156 17.1092 53.0393 17.2798 52.9419 17.4493L52.4042 16.4818C51.9718 16.6599 52.7303 18.0538 53.1721 17.8996C53.4776 17.7929 53.3309 17.1377 53.2826 16.9316C53.2568 16.8212 53.1953 16.4703 53.0429 16.4347C52.7429 16.3646 52.9387 16.7951 52.9714 16.9284Z" fill="black"/>
<path fill-rule="evenodd" clip-rule="evenodd" d="M30.7901 36.4431C30.5408 36.2586 30.1275 36.6906 29.8639 36.6922C29.331 36.695 29.6211 36.0679 29.2876 35.8647C29.1138 35.7586 28.3856 35.8656 28.5007 35.4266C28.5698 35.1626 28.8403 35.3532 28.9886 35.1919C29.1746 34.9897 28.9095 34.8284 28.7445 34.7454C28.8169 34.6485 29.2341 34.6059 29.3389 34.6729C29.5198 34.7888 29.5094 35.1363 29.6754 35.3153C29.8908 35.0394 29.7739 34.6927 30.0033 34.445C30.0924 34.3487 30.353 34.2764 30.2517 34.1047C30.1929 34.0049 29.9356 34.0379 29.8475 33.9586C29.7707 33.8895 29.7745 33.6664 29.6504 33.6479C29.4477 33.6176 29.4527 33.9284 29.3918 34.0181C29.2086 34.2878 28.4039 34.1947 28.7375 34.7418C28.5153 34.6306 27.9091 34.5426 28.0267 34.931C28.0568 35.0304 28.1714 35.0911 28.1998 35.2043C28.2245 35.3024 28.1702 35.4422 28.1651 35.5407C28.1554 35.7274 28.1405 35.9457 28.2782 36.0959C28.4675 36.3024 28.7204 36.1521 28.9234 36.242C29.2001 36.3642 29.1003 36.6184 29.2462 36.8408C29.4373 37.1316 29.731 37.0423 30.0015 36.9543C30.324 36.8493 30.375 36.8398 30.6109 37.1094C30.7188 36.9694 31.0144 36.609 30.7901 36.4431Z" fill="black"/>
<path fill-rule="evenodd" clip-rule="evenodd" d="M31.2238 35.3074C30.9636 35.2591 31.0661 34.4811 30.7495 34.8193C30.6307 34.9458 30.7523 35.1931 30.6199 35.3288C30.5309 35.42 30.4181 35.3662 30.3291 35.4261C30.249 35.4797 30.2288 35.5826 30.1816 35.6611C30.349 35.7367 30.4784 35.7465 30.6572 35.7136C30.6572 35.8486 30.5677 36.2463 30.7974 36.2173C31.011 36.1901 30.9507 35.791 31.0595 35.667C31.1698 35.5409 31.6149 35.5994 31.6563 35.4221C31.7075 35.2026 31.3375 35.3285 31.2238 35.3074Z" fill="black"/>
</svg>
