<svg width="108" height="89" viewBox="0 0 108 89" fill="none" xmlns="http://www.w3.org/2000/svg">
<path fill-rule="evenodd" clip-rule="evenodd" d="M54.1148 58.2122C52.4604 58.1906 50.8062 58.1692 49.1519 58.1477C49.7648 58.5475 50.3777 58.9472 50.9907 59.3468C55.3191 62.1698 59.6476 64.9928 63.9762 67.8157C62.9449 68.5033 61.9137 69.1907 60.8824 69.8782C59.8512 70.5656 58.8199 71.2532 57.7887 71.9407C58.1539 72.3274 58.519 72.7141 58.8844 73.1008C59.2496 73.4876 59.6147 73.8743 59.9801 74.261L59.302 74.6468C58.8447 74.907 58.3873 75.1672 57.9301 75.4274C57.3816 75.7394 56.8331 76.0515 56.2846 76.3636C55.5801 76.7644 54.8756 77.1651 54.1713 77.566L52.839 78.324C52.8129 78.3388 52.7841 78.3578 52.7538 78.3776C52.6631 78.4372 52.5593 78.5053 52.4771 78.4979C52.3603 78.4873 52.1767 78.3412 52.032 78.226C51.9725 78.1787 51.9197 78.1367 51.8808 78.1113C51.4573 77.8358 51.0345 77.5595 50.6122 77.2822C49.3126 76.4293 48.0177 75.5694 46.7279 74.7017C43.5658 72.5744 40.4107 70.4215 37.3836 68.1046C35.9849 67.0343 34.6866 65.9246 33.594 64.5321C32.3918 62.9999 31.399 61.308 30.5261 59.5702C29.7911 58.1072 29.1404 56.6012 28.5633 55.0693C28.5075 54.9213 28.4286 54.7483 28.3442 54.5632C28.1284 54.0899 27.8764 53.5374 27.8828 53.1215C27.886 52.9077 28.0149 52.6292 28.1291 52.3826C28.1808 52.2707 28.2297 52.1654 28.2623 52.0756C28.3863 51.7346 28.5103 51.3935 28.6343 51.0525C28.7583 50.7114 28.8825 50.3704 29.0065 50.0293C29.0475 49.9163 29.1013 49.7945 29.157 49.6688C29.2736 49.405 29.3977 49.1243 29.4272 48.8719C29.4633 48.5646 29.373 48.1799 29.2897 47.8253C29.251 47.6607 29.2138 47.5025 29.1916 47.3615C29.1829 47.3072 29.1769 47.2283 29.1699 47.1385C29.1493 46.8703 29.1211 46.5054 28.9982 46.4139C28.9198 46.3555 28.6856 46.3603 28.5112 46.3639C28.4426 46.3653 28.3835 46.3664 28.3465 46.3636C27.6447 46.3097 26.9431 46.2557 26.2414 46.2017C25.8788 46.1739 25.5161 46.1459 25.1535 46.118L16.5911 45.4595C16.3322 45.4395 16.0627 45.4307 15.7902 45.4218C15.2359 45.4038 14.6687 45.3852 14.1518 45.2718C13.5693 45.144 13.2051 44.6769 13.031 44.1307C12.5083 42.4904 12.0141 40.8241 11.6958 39.1305C11.388 37.4937 11.6852 36.2201 12.3564 34.7056C12.944 33.3799 13.6379 32.0652 14.4269 30.8466C14.6183 30.5509 14.6479 30.5572 14.8955 30.6101C14.9423 30.62 14.9968 30.6316 15.0618 30.6432C16.7378 30.9419 18.4139 31.2407 20.0899 31.5395C22.9262 32.0452 25.7627 32.5508 28.599 33.0564C31.4355 33.5619 34.2718 34.0676 37.1082 34.5732C39.1083 34.9297 41.1086 35.2863 43.1086 35.6427C43.1983 35.6588 43.3146 35.6686 43.4401 35.6795C43.7229 35.7036 44.0527 35.7317 44.2311 35.8429C44.326 35.9022 44.4035 36.0449 44.4714 36.1698C44.498 36.2188 44.5232 36.265 44.5473 36.3023L44.5918 36.3713C44.9473 36.9224 45.3028 37.4733 45.6583 38.0245C47.2507 40.4928 48.8796 42.9374 50.5083 45.382C51.0057 46.1286 51.5033 46.8752 51.9997 47.6225C53.3766 49.6951 54.7536 51.7676 56.1304 53.8403C57.1128 55.3191 58.0953 56.7978 59.0777 58.2766C57.4233 58.2552 55.7691 58.2337 54.1148 58.2122ZM67.5855 51.9602C71.997 51.9495 76.5458 51.7478 80.8629 50.8001C84.1514 50.0782 87.4539 48.5903 90.1441 46.5461C89.58 48.6955 88.7918 51.3843 87.1262 52.9417C86.5418 53.4881 85.7772 53.8598 85.0574 54.2095C84.9972 54.2388 84.9371 54.2679 84.8777 54.297C83.7448 54.8502 82.583 55.3449 81.4136 55.8149C81.2438 55.8831 81.0732 55.9519 80.9022 56.021C78.9924 56.7923 77.0001 57.5968 74.9817 57.9663C74.3712 58.078 74.0602 57.9684 73.552 57.6021C72.7373 57.0148 71.9971 56.3147 71.2679 55.6249C71.2329 55.5919 71.1981 55.559 71.1633 55.526C69.94 54.3696 68.7501 53.1758 67.5855 51.9602Z" fill="#FF5678"/>
<path fill-rule="evenodd" clip-rule="evenodd" d="M45.1087 1.18671C46.1716 1.66044 46.7326 2.97116 47.2907 3.91901C47.9605 5.05648 48.5672 6.2477 48.9093 7.52851C49.26 8.84094 49.3086 10.2799 49.1531 11.6265C49.0848 12.2189 48.9244 12.7581 48.755 13.3249C48.5739 13.9308 48.856 14.2773 49.2856 14.7045C50.1782 15.5919 51.302 16.2728 51.9644 17.366C52.5255 18.2923 53.1781 18.4638 54.236 18.5035C56.8635 18.6021 59.4384 18.5208 62.0415 19.0234C62.7024 19.151 63.3592 19.3072 64.0094 19.4816C64.223 19.5389 64.4464 19.6389 64.6666 19.659C64.9839 19.6879 65.0381 19.5617 65.2752 19.4396C66.3183 18.9027 67.6421 19.4185 68.6847 19.713C71.3166 20.4567 73.7998 21.469 76.1854 22.8102C78.7613 24.2586 81.5074 25.383 84.0596 26.8744C86.5252 28.3152 88.7402 30.1285 91.0399 31.8105C93.3785 33.5212 95.5967 35.3723 97.7594 37.2997C99.8497 39.1625 102.011 40.9909 103.881 43.0811C105.585 44.9868 106.932 47.2428 107.835 49.64C108.137 50.4401 107.951 50.9442 107.009 50.6802C106.925 51.4896 106.322 51.8278 105.557 51.6548C105.792 52.3339 106.328 53.2538 106.021 53.9846C105.613 54.9561 104.444 54.2489 103.87 53.8703C103.933 54.6514 104.265 55.9193 103.62 56.5497C102.62 57.5264 100.933 56.2817 100.225 55.5518C98.4208 53.6918 97.267 51.3903 95.6652 49.3838C93.6799 46.8969 91.4435 44.5522 89.199 42.3009C89.0219 42.1231 87.0241 39.9797 86.7378 40.271C87.6094 41.7144 88.3061 43.3031 89.5247 44.5022C90.1033 43.6897 90.5223 44.0901 90.631 44.9059C90.7615 45.8867 90.9069 46.9195 90.726 47.9024C90.3705 49.837 89.1492 51.677 87.866 53.1258C86.5235 54.6411 84.8568 55.7949 83.0687 56.7237C82.0564 57.2495 81.0412 57.7422 79.9523 58.0874C79.4646 58.2421 78.9762 58.4214 78.4753 58.5288C77.9937 58.632 77.4729 58.6248 77.0271 58.8585C81.02 60.7648 85.4376 61.5678 89.4399 63.425C90.4059 63.8732 92.3458 65.0383 91.3656 66.3478C90.6074 67.361 88.8842 67.3969 87.7532 67.599C88.5853 68.3844 88.4613 69.1136 87.3675 69.5412C86.928 69.7129 86.47 69.7926 86.0015 69.8048C85.6833 69.8131 85.1335 69.6999 84.8765 69.95C85.8682 70.4044 87.2201 70.3768 88.0352 71.1751C88.8668 71.9895 87.8736 72.6448 87.1304 72.9589C86.1529 73.3719 84.8088 73.8076 83.8144 73.3095C83.0285 72.9158 82.3029 73.0012 81.4338 72.8977C80.5377 72.7909 79.6518 72.5991 78.7874 72.3412C75.4957 71.359 72.4648 69.5415 69.5579 67.7535C66.6538 65.9673 63.9454 63.9379 61.4407 61.6221C60.8229 61.0508 60.3083 60.371 59.6768 59.8178C59.0121 59.2357 58.3163 59.1835 57.466 59.1931C55.5331 59.215 53.6038 58.8711 51.6719 59.0979C54.4487 61.1907 57.383 63.034 60.304 64.9137C61.4154 65.629 62.5838 66.5828 63.8906 66.8946C64.4638 67.0315 65.6938 67.1223 65.8842 67.8291C66.0234 68.3448 65.5823 68.4315 65.3181 68.7113C64.9354 69.1166 65.4742 69.2521 65.8691 69.42C66.3669 69.6316 66.8213 69.6998 67.3634 69.6438C68.1933 69.5581 68.8444 69.5866 69.6177 69.9421C70.8329 70.5005 72.1376 70.8011 73.3559 71.3473C73.8604 71.5736 73.9931 72.2477 74.2366 72.7055C74.6194 73.4249 75.0618 74.1099 75.496 74.7989C76.3144 76.0978 77.0207 77.4338 78.182 78.4699C79.1997 79.3779 80.3329 80.1822 81.4383 80.9805C83.1646 82.2277 85.3607 83.7696 84.8059 86.2159C84.2572 88.6342 81.7508 88.3742 79.8409 87.9423C79.0371 87.7606 77.9385 87.2523 77.1281 87.4912C76.4288 87.6974 75.9472 87.7281 75.2217 87.5635C74.3804 87.3724 73.5339 87.2482 72.6817 87.1164C70.8952 86.8402 69.0939 86.3845 67.3868 85.7871C66.5679 85.5006 65.8841 85.1181 65.2392 84.5326C65.0476 84.3589 64.9083 84.1123 64.6536 84.1143C64.437 84.1161 64.102 84.5005 63.9344 84.6339C63.4054 85.0552 62.8203 85.407 62.2165 84.9059C61.831 84.586 61.488 83.8899 62.0454 83.5604C62.4727 83.3078 63.2531 83.5973 63.5595 83.1196C63.8804 82.6194 63.1631 81.8938 62.9386 81.4872C62.2608 81.9473 61.2633 82.8779 60.4773 82.1076C59.8475 81.4908 60.5482 81.1165 61.1289 80.9191C61.8468 80.675 62.6774 80.7064 62.3116 79.7465C62.1037 79.2013 61.7711 78.7128 61.7176 78.1177C61.677 77.6654 61.8074 77.2301 61.8107 76.7814C61.8163 75.9793 60.9539 75.2885 60.2027 75.0985C59.7439 74.9823 59.6077 75.3744 59.3259 75.6748C58.9118 76.1165 58.3828 76.447 57.8554 76.7351C56.9902 77.2076 56.0821 77.5828 55.1753 77.9641C54.5745 78.2167 53.5125 78.5478 53.9415 79.3135C54.5692 80.4344 53.0978 79.8979 52.5673 79.6436C51.3332 79.0519 50.0869 78.487 48.8682 77.863C46.3689 76.5828 44.0692 75.0021 41.8615 73.2719C39.6943 71.5733 37.5784 69.769 35.6093 67.8427C34.6555 66.9095 33.7438 65.928 32.9317 64.868C32.0594 63.7295 31.3248 62.4949 30.436 61.3678C29.5138 60.198 28.6024 59.0631 28.0082 57.6831C27.4578 56.4045 26.833 54.9773 26.8231 53.5726C26.8121 52.0207 26.8183 50.6268 27.3315 49.1382C27.5456 48.5171 27.8027 47.8703 28.1759 47.3272C28.2832 47.1711 28.8462 46.6373 28.7309 46.4245C28.7373 46.4364 27.4516 46.6329 27.3172 46.6457C26.4637 46.7273 25.605 46.5809 24.7548 46.5015C22.2406 46.2669 19.7027 46.3548 17.1978 46.0096C16.2534 45.8794 15.2287 46.0162 14.3069 45.7763C13.8715 45.6631 13.7642 45.4137 13.4443 45.2096C13.2982 45.1164 13.142 45.1473 13.0061 45.0178C12.847 44.8662 12.8126 44.6475 12.7422 44.4497C12.3662 43.394 11.7326 42.4513 11.3604 41.3935C10.9418 40.2037 10.9608 38.9707 10.9912 37.727C10.3695 37.7765 9.71642 37.7806 9.13312 37.529C8.66236 39.0085 6.63479 38.9818 5.3884 38.8695C3.83185 38.7294 2.0068 38.5828 1.21789 37.0206C0.290786 35.1846 0.352016 32.9557 0.239867 30.952C0.108125 28.5988 0.0706135 26.2104 0.186242 23.8558C0.284598 21.8531 0.740927 19.7742 2.0358 18.1848C3.1783 16.7825 5.15482 15.9617 6.70956 17.2704C7.87809 18.2542 8.3883 20.026 8.46474 21.5016C8.50367 22.2525 8.46861 22.9269 9.393 22.7187C9.74839 22.6387 10.0714 22.5093 10.3335 22.8738C10.5646 23.1949 10.4585 23.6591 10.1659 23.8992C9.90076 24.1171 9.38488 24.0802 9.20325 24.404C9.02329 24.7252 9.30792 25.2395 9.64901 25.3048C10.0374 25.3792 10.3365 24.8802 10.7276 25.1117C11.0859 25.324 10.8988 25.7207 10.6586 25.953C10.3745 26.2281 10.1008 26.2854 10.304 26.7207C10.4597 27.0547 10.7714 27.2771 10.9113 27.6312C11.2565 28.5048 11.3704 29.7601 10.9865 30.6387C11.6527 30.7128 13.2634 31.5009 13.7874 30.8634C13.9775 30.6322 14.0002 30.2925 14.2057 30.0566C14.4474 29.7789 14.7853 29.6608 15.143 29.6161C15.9078 29.5205 16.6903 29.7531 17.4331 29.9031C18.6647 30.1518 19.9038 30.3697 21.1407 30.5895C23.6298 31.0318 26.1419 31.3396 28.6248 31.8147C31.1024 32.289 33.5544 32.8887 36.0047 33.4859C37.2896 33.799 38.5686 34.1509 39.8631 34.4221C41.0729 34.6754 42.3336 34.8622 43.4596 35.3981C43.2369 34.0211 42.6157 32.7557 42.2285 31.4247C41.8302 30.0555 41.7183 28.6889 41.9431 27.279C42.1492 25.9873 42.4545 24.7319 43.1136 23.5903C43.38 23.1286 43.6733 22.6688 44.0572 22.2966C44.3301 22.0318 44.7143 21.8116 44.9301 21.4959C45.143 21.1844 45.0977 21.112 44.7145 20.9686C44.5014 20.8886 44.3079 20.8645 44.1059 20.7526C43.9202 20.6498 43.7603 20.463 43.5419 20.4274C43.0382 20.3452 42.3017 20.8335 41.8403 21.0072C41.2103 21.2443 40.5594 21.4578 39.8871 21.53C37.6803 21.7669 35.0633 20.4868 33.5504 18.9361C33.0455 18.4185 31.8868 17.2285 32.3576 16.4392C32.6062 16.0226 33.0505 16.1216 33.4236 15.9323C34.0078 15.636 33.6376 15.1443 33.3577 14.7541C32.5954 13.6912 32.0841 12.4747 31.5383 11.292C30.9827 10.0882 30.2212 9.01212 29.5967 7.84691C29.1485 7.01083 28.629 6.07561 28.423 5.14517C28.1714 4.00886 28.9405 3.84824 29.8807 3.68543C32.8546 3.17032 35.7827 2.47823 38.7299 1.83382C39.9047 1.57704 41.0852 1.31601 42.2677 1.097C43.1893 0.926323 44.2237 0.792519 45.1087 1.18671ZM71.2112 72.0743C69.6776 72.1532 68.1345 72.4938 68.0854 74.2833C68.2714 77.6789 70.4797 80.2171 72.8127 82.4694C73.4013 83.0376 73.9773 83.6399 74.6166 84.1521C74.9927 84.4533 75.4028 84.5911 75.8098 84.8299C75.9095 84.8884 76.0819 85.0845 76.1746 85.1143C76.3945 85.1854 76.4136 85.1055 76.6281 85.0828C77.0957 85.0336 77.1821 85.3594 77.5376 85.626C78.2122 86.1317 79.4229 86.0577 80.215 86.2159C80.9465 86.3619 83.8585 87.4168 83.7276 85.8975C83.5996 84.413 82.0163 83.6918 80.9007 83.0288C79.3457 82.1048 77.7427 81.1046 76.4334 79.8453C75.1887 78.6479 74.3761 77.0095 73.5401 75.5183C73.0191 74.5891 72.8748 73.8011 72.7244 72.7626C72.6607 72.3233 72.6543 72.1795 72.2245 72.1054C71.8922 72.0482 71.5464 72.0571 71.2112 72.0743ZM65.8755 71.8276C64.9895 72.1147 64.3203 72.8252 63.8794 73.6288C63.6536 74.0402 63.5242 74.455 63.4496 74.9149C63.3546 75.5003 63.136 76.1255 63.2995 76.7139C63.5963 77.7821 64.375 78.9482 64.9867 79.8645C65.6744 80.8951 66.5674 82.052 67.6527 82.6837C68.6972 83.2919 69.9587 83.4539 70.9274 84.2046C70.8407 83.7918 70.4536 83.4871 70.1497 83.2296C69.7068 82.8544 69.3195 82.4819 68.9432 82.0351C68.111 81.0471 67.4192 79.9772 66.9759 78.7584C66.5464 77.5774 66.3005 76.2481 66.3553 74.9891C66.3813 74.3899 66.4843 73.7534 66.743 73.2068C66.9157 72.8415 67.2221 72.5308 67.3545 72.1467C67.6575 71.266 66.3174 71.6844 65.8755 71.8276ZM46.4477 42.6369C45.2109 42.7774 43.9846 43.015 42.7387 43.1301C40.22 43.3627 37.6057 43.5002 35.3233 44.7033C32.0023 46.4541 28.1776 50.3393 29.3294 54.4319C30.69 59.2662 33.5988 63.6377 37.2406 67.0587C39.5656 69.2427 42.1119 71.2107 44.666 73.1172C47.1365 74.9615 49.9946 76.1711 52.5415 77.8952C52.7141 75.3546 54.3105 73.0248 56.1982 71.4084C57.2126 70.54 58.2772 69.7079 59.4147 69.0065C59.9735 68.6618 60.5523 68.3706 61.1415 68.0828C61.5888 67.8644 62.083 67.5393 62.5943 67.5149C62.586 67.1403 61.6464 67.002 61.3872 66.9138C60.4926 66.6098 59.6341 66.1438 58.8055 65.6923C57.0014 64.7095 55.3345 63.5102 53.6652 62.3186C52.8492 61.7362 52.0204 61.1712 51.2132 60.5764C50.4863 60.041 49.8418 59.3443 49.0608 58.8884C48.2573 58.4194 47.3075 58.3215 46.4111 58.1486C45.3343 57.9408 44.2746 57.6941 43.1926 57.5118C41.3857 57.2075 39.6802 56.1433 38.0144 55.4182C37.4545 55.1744 36.6 54.9628 36.1725 54.5011C35.7851 54.0828 35.8863 53.4368 36.3829 53.1501C37.2369 52.6572 38.6601 53.3001 39.4676 53.6182C40.9614 54.2067 42.4448 54.7334 44.03 55.0349C46.2013 55.4479 48.2647 56.2209 50.4389 56.6256C52.7836 57.0618 55.1338 57.5393 57.5176 57.7001C56.9335 56.5427 55.9651 55.5811 55.2109 54.5341C54.3456 53.3331 53.4815 52.1313 52.6236 50.9248C51.1117 48.798 49.4256 46.6609 48.2764 44.31C47.8823 43.5041 47.4946 42.518 46.4477 42.6369ZM57.6759 73.6268C57.3317 73.6818 57.0718 74.026 56.8378 74.2535C56.1135 74.9576 55.4045 75.6547 54.8148 76.4802C55.7273 76.0948 56.4715 75.4231 57.3512 74.9816C57.6681 74.8224 58.7876 74.4676 58.562 74.0242C58.4351 73.7751 57.9292 73.5863 57.6759 73.6268ZM61.8635 70.791C60.9701 71.4007 60.04 71.9458 59.0978 72.4759C59.7586 72.727 60.4185 73.0735 60.9608 73.5287C61.2088 73.7369 61.7186 74.3462 62.0772 74.1931C62.4106 74.0507 62.5917 73.226 62.7531 72.9284C63.1662 72.1663 63.7443 71.4464 64.3657 70.8455C63.432 70.2206 62.8063 70.1476 61.8635 70.791ZM54.3222 37.5994C53.6072 37.7984 52.8977 38.0159 52.1832 38.2165C50.7566 38.617 49.2986 38.9518 47.8089 38.9518C47.6061 39.3248 48.1868 39.9333 48.3652 40.2178C48.8335 40.9648 49.2334 41.7659 49.658 42.5392C50.5582 44.1784 51.5403 45.754 52.5998 47.2944C53.6702 48.8509 54.6372 50.481 55.7334 52.0186C56.7944 53.507 57.9615 54.9528 59.1109 56.3738C63.5888 61.9105 69.8299 65.7287 75.9639 69.1587C77.6833 70.1201 79.4746 70.9672 81.3786 71.4922C82.1648 71.709 82.9668 71.8926 83.7665 72.0541C84.3039 72.1625 85.1981 72.4055 85.693 72.0578C84.1393 71.4422 82.1033 71.2047 80.8483 70.0135C80.0714 69.2761 80.9235 68.7259 81.7156 68.5889C83.2484 68.3237 84.8371 68.9914 86.3417 68.5582C85.9395 67.8203 84.7836 67.8555 84.0804 67.6661C83.1913 67.4265 83.1583 66.9773 84.0048 66.6718C85.0467 66.2957 86.2477 66.4997 87.3335 66.4305C87.8634 66.3967 90.0844 66.3081 89.4136 65.2901C88.8856 64.4893 87.6003 64.2647 86.759 63.9692C85.5788 63.5548 84.4323 62.908 83.2302 62.5868C82.0545 62.2727 80.8566 62.0797 79.6808 61.7481C78.4538 61.4019 77.2455 61.0173 76.0794 60.4979C73.8313 59.4966 71.747 58.1371 69.8485 56.5766C67.8922 54.9684 66.1772 53.1254 64.5993 51.149C63.769 50.1092 62.9789 49.0393 62.1713 47.9823C61.3912 46.9616 60.5091 45.9888 59.8845 44.862C59.194 43.6157 58.299 42.4781 57.5838 41.2362C57.1963 40.5632 56.7793 39.9031 56.418 39.2156C56.1612 38.7268 55.9863 38.0101 55.639 37.5854C55.3125 37.1861 54.7417 37.4827 54.3222 37.5994ZM21.2935 53.3925C21.5331 53.6115 21.4933 53.7017 21.4471 53.9799C21.3527 54.5499 21.2484 55.1094 21.2045 55.6878C21.0542 57.666 21.3332 59.7175 21.6414 61.6714C21.9491 63.6208 22.6888 65.4219 23.8287 67.0342C24.9332 68.5965 26.2663 69.841 28.0227 70.6077C28.3242 70.7393 29.5182 71.2222 29.441 71.6677C29.383 72.0027 28.7631 71.8132 28.5402 71.7654C25.3832 71.0889 22.7076 68.234 21.1121 65.5764C20.4516 64.4764 20.0267 63.3578 19.6619 62.1419C19.6086 61.9642 18.844 59.4484 19.1022 59.4168C18.8793 57.6746 18.8127 55.5564 19.636 53.9439C19.9436 53.3417 20.6643 52.818 21.2935 53.3925ZM15.7855 53.7672C15.4974 55.0805 15.5926 56.4205 15.6562 57.7508C15.6678 57.993 15.8062 58.74 15.4054 58.7257C15.1222 58.7157 14.8965 57.9925 14.827 57.807C14.4062 56.6814 14.2566 55.4136 14.4669 54.2272C14.5333 53.8515 14.6336 53.3958 15.0466 53.2654C15.4058 53.1519 15.8173 53.3546 15.7855 53.7672ZM89.5611 47.704C89.3836 47.7897 89.3053 47.9529 89.2524 48.1321C87.8635 49.316 86.2296 50.4618 84.6057 51.2972C83.155 52.0434 81.4751 52.3579 79.8917 52.6954C76.2706 53.4672 72.665 53.7791 69.0534 52.7801C70.5292 54.1418 71.8675 55.9513 73.728 56.8188C74.6524 57.2499 75.6756 56.9899 76.6076 56.7169C77.7511 56.3818 78.9016 56.0396 80.0082 55.5954C82.0992 54.7562 84.3357 53.8275 86.094 52.3891C86.8735 51.7514 87.5089 50.9631 88.0682 50.1303C88.3885 49.6532 88.6596 49.143 88.9838 48.6694C89.1706 48.3963 89.5798 48.06 89.5611 47.704ZM74.1319 23.4874C74.0788 24.1609 73.6822 24.7267 73.3323 25.2797C73.0943 25.6557 72.6309 26.1092 72.8507 26.5358C73.1116 27.042 73.9435 27.3654 74.3745 27.7116C75.0127 28.2243 75.6105 28.7844 76.1981 29.3535C77.2526 30.3749 78.3444 31.3649 79.3763 32.408C80.3569 33.399 81.3084 34.4087 82.5451 35.0844C85.2604 36.568 87.651 38.641 90.0236 40.6121C92.4427 42.6216 94.8319 44.734 96.931 47.0815C98.0543 48.3377 98.9879 49.7166 99.7886 51.1967C100.2 51.9581 100.642 52.7028 101.054 53.464C101.237 53.8007 101.443 54.1278 101.609 54.4732C101.732 54.7299 101.813 55.1455 102.04 55.3356C102.492 54.3347 101.788 53.0107 101.38 52.109C101.101 51.4927 100.827 50.8739 100.552 50.2558C100.359 49.8223 99.9575 49.2989 99.9355 48.8152C99.8818 47.6389 101.396 48.4851 101.812 48.8622C102.84 49.7955 103.433 51.1985 104.161 52.3563C104.332 51.4345 102.497 50.011 103.256 49.2075C103.859 48.5704 104.97 50.0631 105.307 50.4673C105.538 49.3276 104.946 48.2125 104.326 47.3002C103.636 46.2834 102.838 45.3165 102.02 44.4008C100.109 42.2605 97.9247 40.3556 95.7637 38.4739C93.614 36.6019 91.4008 34.8061 89.1969 32.9987C87.0567 31.2437 84.8844 29.4888 82.4923 28.0837C81.151 27.2958 79.7441 26.6367 78.3749 25.9013C76.9409 25.1312 75.5815 24.2292 74.1319 23.4874ZM55.4365 20.8911C55.374 20.9067 55.0122 20.9501 54.9851 20.982C54.8671 21.1209 55.0244 21.5703 55.1635 21.651C54.6836 22.0097 54.1445 22.3363 53.5345 22.3921C53.9183 22.7686 54.6473 23.4273 54.5339 24.0346C54.3778 24.87 53.374 24.2842 52.9674 24.0314C52.315 23.6255 51.6483 23.1949 51.1706 22.5829C50.8673 22.1945 50.764 21.7826 50.537 21.3643C50.4138 21.137 50.4855 21.0959 50.2125 21.0802C49.9005 21.0625 49.3668 21.3584 49.0777 21.4759C48.6312 21.6577 48.1957 21.8674 47.7757 22.1044C47.001 22.5417 46.2758 23.0724 45.6404 23.696C44.3248 24.9866 43.4338 26.6822 43.3209 28.5388C44.2545 28.4281 45.168 28.0255 45.9547 27.5233C46.515 27.1657 47.0866 26.7455 47.1855 27.7546C47.2239 28.1476 47.1139 29.0628 46.878 29.3669C46.6577 29.6509 46.5626 29.4207 46.3339 29.591C46.0695 29.7882 46.2091 30.0721 46.2091 30.3489C46.0817 30.2419 45.9543 30.1351 45.8271 30.0281C45.5966 30.3292 45.8574 30.168 45.9444 30.3501C45.9952 30.4563 45.6479 30.7621 45.5785 30.8162C45.4351 30.9284 45.3558 30.8356 45.1917 30.9967C45.0862 31.1003 44.9725 31.3329 44.8582 31.4623C44.2672 32.1311 45.0498 33.1791 45.3593 33.8882C45.5883 34.4134 45.8383 34.9281 46.0766 35.4487C46.2512 35.8298 46.3454 36.2821 46.5772 36.6333C47.0371 37.3302 48.091 36.9495 48.779 36.8641C49.7122 36.7482 50.6286 36.6296 51.5627 36.5419C52.1103 36.4904 52.7291 36.1718 52.0259 35.7594C51.328 35.3503 48.9171 35.2728 48.9015 34.2203C48.885 33.1013 50.4396 32.9153 51.2192 33.0115C52.3596 33.152 53.0966 33.4399 53.8767 34.3006C53.7019 32.6592 52.5374 31.3017 52.2775 29.6549C52.2069 29.2076 51.9899 26.4506 53.0649 27.6417C53.6406 28.2796 54.0965 29.2451 54.522 29.9828C55.1661 31.0997 55.7273 32.2602 56.3186 33.4051C56.8827 34.4977 57.7091 35.5475 58.1042 36.7098C58.3266 37.3636 58.6369 38.7378 59.3425 39.0714C59.7946 39.2852 60.5578 39.0054 61.0247 38.9372C61.3132 38.895 61.5946 38.8538 61.8421 38.6872C61.9702 38.601 62.0968 38.3775 62.2586 38.3525C62.7247 38.2804 62.845 38.9925 62.8133 39.3203C62.7643 39.8259 62.5322 39.957 62.0606 40.0158C62.8554 40.4052 61.6308 41.6233 61.416 42.1091C61.4047 42.0842 61.2653 41.7428 61.1616 41.7432C60.9556 41.7439 61.7927 43.3919 61.8559 43.5065C62.295 44.302 62.8463 45.0172 63.3796 45.7504C63.6861 46.1718 64.1272 47.1686 64.7508 47.0744C65.0961 47.0223 65.8136 46.3113 66.0849 46.7988C66.3297 47.2385 65.5736 47.7102 65.4597 48.0598C65.2688 48.6462 65.9871 49.2627 66.4103 49.5702C67.532 50.385 68.9865 50.5773 70.314 50.8233C70.0603 50.4813 69.5078 50.295 69.4968 49.8053C69.4894 49.4723 69.7247 49.2906 69.5657 48.9282C69.4347 48.6298 69.1064 48.4564 69.0087 48.1366C68.9009 47.7839 69.0708 47.3833 69.2647 47.0919C70.0862 45.8569 71.9213 46.3708 72.9974 46.932C72.918 46.9669 72.852 47.0174 72.7997 47.0836L72.787 47.1003L72.7899 47.0984C72.9279 47.0138 73.5266 47.2788 73.6012 47.3326C73.837 47.5025 74.155 47.8985 74.3178 48.1438C74.8419 48.9336 74.917 49.8963 74.6447 50.7915C77.9263 50.7915 81.0177 49.9169 83.9544 48.5228C84.6251 48.2045 85.284 48.0007 85.9194 47.6001C86.5721 47.1887 87.1923 46.732 87.8334 46.3038C88.4355 45.9015 88.3811 45.6599 87.9777 45.088C87.4866 44.3919 87.054 43.6497 86.5088 42.9932C86.4252 43.1751 86.3924 43.539 86.2135 43.6508C86.0158 43.7743 85.8343 43.529 85.701 43.6218C85.7128 43.6135 85.2916 44.268 85.2238 44.105C85.3993 44.5267 84.6965 44.2573 84.572 44.1792C84.601 44.5744 84.2726 44.9146 84.0881 44.3863C83.5871 44.8448 82.3989 44.4251 83.0397 43.7181C83.3561 43.369 83.7004 43.1835 83.8993 42.7278C84.1219 42.2179 84.1996 41.6406 84.2276 41.0893C84.2936 39.7895 83.5903 39.1826 82.7086 38.3398C82.2163 37.8692 81.7022 37.4225 81.1957 36.9675C80.7505 36.5676 80.3653 36.0724 79.8981 35.7016C79.5626 35.4355 79.2949 35.3589 78.9692 35.59C78.8351 35.6853 78.7914 35.8063 78.619 35.8981C78.3981 36.0158 78.0704 36.0886 77.8239 36.1193C76.5849 36.2736 75.1508 35.8489 74.0154 35.3912C73.7045 35.2659 73.5556 35.062 73.2864 34.9069C73.1163 34.8088 72.9712 34.8683 72.7906 34.7511C72.3186 34.4449 72.3423 33.9535 72.6854 33.571C73.4894 32.6744 74.6443 33.4809 75.466 32.7569C76.4897 31.8548 74.7829 30.6075 74.0934 30.0554C73.5415 29.6134 73.0674 29.5178 72.393 29.4017C72.2517 29.3774 71.3148 29.1069 71.6426 29.4957C70.9147 29.4769 70.5567 29.4799 69.9707 29.9343C69.8169 30.0534 69.6125 30.166 69.5702 30.3693C69.5479 30.4766 69.7688 30.4981 69.7693 30.4971C69.7396 30.5691 69.5172 30.7 69.4851 30.7229C69.86 30.7674 69.7626 31.5032 69.666 31.5073L69.6603 31.5067L69.6712 31.5162C69.8349 31.6711 69.4656 31.9099 69.3403 31.95C68.9847 32.0638 68.6472 31.8164 68.4094 31.5693C67.877 31.0162 67.4904 30.0751 67.5246 29.3084C67.5724 28.2323 68.2791 27.6084 68.862 26.8017C69.2983 26.1982 68.65 25.8772 68.1989 25.4985C67.6466 25.0353 66.8956 24.4658 66.714 23.7279C66.5486 23.0558 67.0071 22.8258 67.5947 23.028C68.3887 23.301 69.0313 24.0037 69.735 24.4434C70.3596 24.8336 71.148 25.6303 71.9111 25.6758C71.7711 25.1776 71.0777 25.2305 70.8095 24.8604C70.4552 24.3714 71.0055 24.1535 71.4219 24.2095C71.7451 24.253 72.6671 24.9372 72.6432 24.1483C72.6303 23.7256 71.9253 23.5841 71.6184 23.4619C70.0587 22.8411 68.4612 22.4176 66.8072 22.13C66.2711 22.0369 66.1339 22.1022 65.8748 22.5862C65.7869 22.7506 65.4708 23.5067 65.2976 23.0054C65.071 23.4162 65.005 23.854 64.5123 24.0193C63.8853 24.2294 63.0792 23.9183 62.5016 23.6771C62.0058 23.4701 61.5347 23.1798 61.2165 22.7372C61.0582 22.5171 60.9429 22.2728 60.8681 22.0124C60.8047 21.7914 60.8347 21.429 60.72 21.2282C60.5283 20.8924 60.0713 20.9648 59.7185 20.9313C58.9309 20.8564 58.1532 20.7887 57.3615 20.7795C56.7037 20.7719 56.0756 20.7319 55.4365 20.8911ZM72.5603 50.3964C72.3084 50.4867 72.7558 50.7882 72.9037 50.7526C72.8431 50.6549 72.7426 50.3312 72.5603 50.3964ZM72.787 47.1003L72.7802 47.1056C72.7714 47.1135 72.7656 47.1235 72.7631 47.136C72.7687 47.1267 72.7747 47.1178 72.7807 47.1091L72.787 47.1003ZM77.8255 39.1813C78.0536 39.3729 77.9616 39.8165 78.1177 40.089C78.5355 40.8186 79.2884 41.5383 79.9979 41.979C80.7621 42.4535 81.1237 43.0693 81.3108 43.9288C81.3496 44.1065 81.4664 44.3531 81.4094 44.537C81.3561 44.7088 81.1631 44.7659 81.1038 44.9191C81.0766 44.9891 81.1903 45.5309 81.1765 45.5326C81.1106 45.5405 80.9183 45.2679 80.9195 45.2693C80.8433 45.4583 80.8697 45.6731 80.6644 45.7743L80.6394 45.7853L80.6426 45.7878C80.6938 45.8274 80.9273 46.0212 80.8716 46.0639C80.7939 46.1232 80.6039 46.0826 80.507 46.1171C80.354 46.1718 80.2436 46.3081 80.0964 46.3715C79.7016 46.5415 79.2463 46.489 78.8295 46.4291C77.9517 46.303 76.9639 45.989 76.3292 45.3387C75.5606 44.5509 75.743 43.7347 75.6736 42.851C75.5958 41.8598 76.3108 40.3571 76.8852 39.5886C77.0812 39.3261 77.4738 38.8865 77.8255 39.1813ZM14.6803 31.4686C14.6307 31.5859 14.6802 31.769 14.6511 31.8978C14.5923 32.1587 14.441 32.3871 14.2953 32.6061C14.0227 33.016 13.7484 33.3916 13.5623 33.8542C13.1056 34.9894 12.682 36.213 12.4633 37.4167C11.9941 40.0011 13.5607 42.1325 13.646 44.6495C14.3654 43.8921 15.4595 43.8559 16.4342 43.8537C17.7314 43.8508 19.0166 43.9054 20.3089 44.0189C22.7811 44.2363 25.3083 44.3244 27.6513 45.2281C27.9092 45.3276 28.1027 45.3706 28.3617 45.4249C28.6462 45.4846 28.4955 45.3514 28.7035 45.5198C28.7595 45.5652 28.7818 45.7287 28.8403 45.7861C29.143 46.0822 29.3242 45.881 29.5806 45.5634C30.286 44.689 30.9898 43.8944 31.8973 43.215C33.8305 41.7672 35.9959 41.0987 38.379 40.8834C39.7449 40.7601 41.0785 40.6889 42.4504 40.7022C43.7602 40.7148 45.1431 40.7388 46.3839 41.2075C46.0753 40.3242 45.5482 39.5327 45.1232 38.7041C44.9169 38.3018 44.7254 37.8789 44.463 37.5087C44.2324 37.1832 43.8842 36.9172 43.7245 36.5456C43.696 36.6202 43.6675 36.6949 43.6389 36.7694C41.1191 36.0476 38.5208 35.6589 35.9374 35.2461C33.3424 34.8314 30.7796 34.2567 28.1901 33.8147C26.89 33.5927 25.585 33.4593 24.2755 33.3106C23.0149 33.1675 21.7996 32.8876 20.5567 32.6498C19.2979 32.4089 18.0728 32.117 16.835 31.7852C16.316 31.6461 15.8248 31.4542 15.3197 31.2867C14.9169 31.1533 14.8254 31.1247 14.6803 31.4686ZM70.401 36.0505C70.4763 36.3595 70.2357 36.758 70.1586 37.0514C70.0712 37.3841 69.8816 37.5174 69.7827 37.82C69.6969 38.0828 69.8517 39.4763 69.1797 39.0602C69.2003 39.1602 69.3109 39.2974 69.3223 39.3866C69.3367 39.4976 69.2287 39.6674 69.26 39.7632C69.2883 39.8495 69.5835 40.102 69.655 40.246C69.9372 40.8116 70.1366 41.4627 70.2757 42.0789C70.4206 42.7212 70.5967 43.6112 70.0647 44.0546C69.9368 44.1611 69.8254 44.1897 69.6942 44.3177C69.6788 44.4361 69.6248 44.5339 69.5322 44.6111C69.4814 44.6254 69.4405 44.6128 69.4099 44.5732C69.2478 44.6611 69.3018 44.2918 69.1113 44.6507C69.0652 44.7373 69.1483 45.0345 69.1071 45.0039C69.0324 44.9489 68.8069 44.7136 68.7338 44.7092C68.5703 44.9319 68.574 44.7051 68.4013 44.7368C68.3944 44.8291 68.3444 44.8799 68.2511 44.8891C68.1782 44.8724 68.1055 44.8555 68.0328 44.8388C67.5929 44.8414 66.9431 44.6568 66.5206 44.5401C65.7143 44.3175 65.139 43.7627 64.9641 42.9221C64.5998 41.171 66.0726 38.9821 67.1255 37.7088C67.4851 37.2739 70.011 34.4507 70.401 36.0505ZM77.4327 41.6917C77.4213 41.8387 77.4668 42.0585 77.3016 42.0748C77.3091 41.9089 77.2393 41.6963 77.4327 41.6917ZM65.96 41.4424C66.0352 41.8663 66.0525 41.6242 65.8819 41.9158C65.8245 41.7441 65.8506 41.5863 65.96 41.4424ZM78.1687 40.8957C78.2342 40.9771 78.4849 41.197 78.269 41.2534C78.0802 41.3025 78.1608 40.9961 78.1687 40.8957ZM69.0848 37.9566C68.999 38.4128 69.2577 38.3036 69.6136 38.2207C69.4374 38.1327 69.2611 38.0447 69.0848 37.9566ZM3.11694 19.5527C1.41203 21.0156 1.36059 23.5738 1.41435 25.6329C1.48744 28.4308 1.6572 31.2365 1.92765 34.022C2.04985 35.2806 2.40886 35.9216 3.65126 36.3433C4.99717 36.8002 6.44685 36.7118 7.8429 36.6307C7.57594 34.5552 7.05348 31.8245 9.13544 30.4432C9.32597 30.3168 9.50025 30.2235 9.73215 30.2115C9.88529 30.2037 10.1049 30.3425 10.2504 30.2715C10.5444 30.1277 10.3762 29.7207 10.2799 29.4903C9.98713 28.7901 9.42845 28.2297 8.97521 27.6356C8.40596 26.8897 7.91689 26.9099 7.06688 27.0019C6.72799 27.0388 5.39484 27.1906 5.65729 26.4671C5.84795 25.941 6.89531 26.0727 7.31967 25.9509C7.64129 25.8585 7.7069 25.8178 7.69311 25.489C7.67133 24.9754 7.37678 24.8359 6.9198 24.8499C6.33199 24.8678 5.31428 25.1803 4.82482 24.7181C4.12589 24.0578 5.16242 23.5955 5.68797 23.5058C6.23815 23.412 6.97394 23.4974 7.10092 22.8164C7.22183 22.1669 6.8792 21.3808 6.61146 20.8088C6.35236 20.2556 5.99825 19.5505 5.45762 19.2183C4.69475 18.7497 3.75361 19.0062 3.11694 19.5527ZM9.73421 31.7753C9.04173 31.9306 8.64328 32.8323 8.56284 33.4628C8.48511 34.0727 8.53809 34.943 8.98527 35.4117C9.57218 36.0268 10.5953 35.9854 11.2269 36.5626C11.5068 35.1735 12.0242 33.8368 12.704 32.5955C12.1672 32.4477 11.6441 32.2565 11.1148 32.0849C10.7276 31.9595 10.1501 31.682 9.73421 31.7753ZM54.1852 34.7679C54.3405 34.9006 54.3897 34.941 54.4297 35.1494C54.0611 35.1727 54.1721 35.0543 54.1852 34.7679ZM57.8418 24.8872C58.418 24.9021 58.6874 25.0887 59.1498 25.3648C59.4793 25.5616 59.879 25.3498 59.879 25.8499C60.8196 25.1106 62.5738 27.0194 63.2331 27.5195C63.9287 28.0468 64.6136 28.6676 64.6906 29.6088C64.7134 29.8875 64.6556 30.1731 64.6975 30.4506C64.7291 30.6597 64.8615 30.8687 64.8389 31.0855C64.8124 31.3369 64.5998 31.4838 64.5508 31.7201C64.5315 31.8137 64.5977 32.0016 64.5566 32.0773C64.135 32.8504 63.5946 33.4846 62.6694 33.561C61.8636 33.6277 60.9734 33.3401 60.3861 32.7778C59.8651 32.2791 59.5544 31.5317 59.4195 30.8327C59.396 30.7118 59.4405 30.4348 59.4006 30.3326C59.3428 30.1836 59.2556 30.181 59.1838 30.0605C58.9934 29.7408 58.7201 29.1383 58.9673 28.787C58.358 28.9245 57.895 27.6192 57.6676 27.2386C57.4971 26.9536 57.0861 26.7304 56.972 26.4531C56.8156 26.0729 57.3778 25.9097 57.1831 25.6448C57.0788 25.503 56.5191 25.5995 56.574 25.2443C56.625 24.9157 57.6217 24.8814 57.8418 24.8872ZM69.6434 31.4941C69.6489 31.5011 69.6545 31.5052 69.6603 31.5068V31.5067L69.6583 31.505L69.6434 31.4941ZM68.035 28.6479C68.0879 28.6025 68.371 28.316 68.4042 28.5309C68.4314 28.7069 68.1197 28.6479 68.035 28.6479ZM41.6187 6.32543C41.0043 6.36294 40.4567 7.02617 39.9991 7.37434C39.3158 7.89412 38.5083 8.27568 37.703 8.56417C36.7656 8.89972 35.802 9.19839 34.8396 9.45298C33.8634 9.71131 32.8466 9.76416 31.8735 10.0325C32.3549 10.9137 32.8365 11.7951 33.3181 12.6764C33.5293 12.3857 33.4571 12.0575 33.8046 11.8486C34.0458 11.7036 34.3949 11.6837 34.6675 11.6301C35.4265 11.4807 36.2594 11.3484 37.0299 11.503C37.5269 11.6028 38.0801 11.9855 37.6093 12.5199C37.3122 12.8571 36.6727 12.7705 36.6204 13.3061C36.5704 13.8193 37.0944 14.2602 36.9731 14.7998C36.8026 15.5582 36.0448 15.3311 35.7078 14.8407C35.4073 14.4035 35.5213 13.6259 35.0573 13.3106C34.7806 13.1226 34.0408 13.0548 33.7427 13.2158C34.2905 14.2266 35.355 15.473 34.7306 16.6815C34.5386 17.0528 34.1194 17.1943 34.4004 17.5591C34.7245 17.9799 35.6596 18.3265 36.1574 18.1977C36.6235 18.0772 37.1576 17.552 37.6819 17.8119C38.1769 18.0572 37.8261 18.4737 37.8698 18.859C38.0015 20.0196 40.3817 19.3576 41.0279 19.2036C41.6762 19.0492 42.3525 18.6754 43.0217 18.6601C43.6528 18.6455 44.2388 18.9498 44.7388 19.3061C45.1133 19.5729 45.7364 20.3536 46.2115 20.3796C46.6882 20.4058 47.3638 19.7001 47.7844 19.4865C48.539 19.1032 49.3639 18.9923 50.1636 18.7368C50.2906 18.6963 50.8453 18.5823 50.8553 18.397C50.8647 18.219 50.2091 17.8296 50.0977 17.7445C49.0803 16.9676 48.3351 15.8965 47.2766 15.1689C46.8047 14.8445 46.2949 14.6158 45.7435 14.4698C45.4375 14.3888 44.6043 14.2796 44.5823 13.8433C46.0505 13.5973 46.0871 11.7657 45.4679 10.7271C45.0741 10.0666 44.4632 9.75243 43.6916 9.89449C42.5735 10.1005 42.369 10.9189 42.113 11.8901C41.1993 11.393 40.2033 10.1758 40.149 9.10313C40.0888 7.91062 41.3692 7.3978 41.6187 6.32543ZM68.8946 14.3398C70.435 14.6256 71.9418 15.0065 73.4252 15.5127C74.3389 15.8246 75.6683 16.0927 76.4585 16.6777C76.6892 16.8486 76.9797 17.2245 76.7692 17.5248C76.5878 17.7838 76.1437 17.7141 75.8813 17.6737C74.6887 17.4903 73.5202 16.9912 72.3404 16.722C69.2045 16.0068 65.9874 15.6708 62.7835 15.4418C61.9 15.3788 61.0158 15.3243 60.1323 15.2621C59.3965 15.2106 58.5879 15.2339 57.8674 15.0674C57.2992 14.936 57.1577 14.5185 57.5832 14.0484C57.998 13.5902 58.6938 13.6616 59.2496 13.578C62.483 13.3668 65.7188 13.7506 68.8946 14.3398ZM63.5356 10.5978C64.5838 10.959 63.3587 11.1312 62.9002 11.0933C62.7447 11.0806 60.6943 10.8771 60.6943 10.9402C60.2851 10.9402 59.2024 11.2532 58.9085 10.8394C58.5928 10.395 59.9442 10.2391 60.2174 10.2193C61.2676 10.1437 62.5261 10.2501 63.5356 10.5978Z" fill="black"/>
</svg>
