<svg width="108" height="74" viewBox="0 0 108 74" fill="none" xmlns="http://www.w3.org/2000/svg">
<path fill-rule="evenodd" clip-rule="evenodd" d="M86.9252 46.0951C87.5521 45.8524 88.3209 47.7646 87.6978 48.2356C87.1618 48.7434 86.4089 46.4068 86.9252 46.0951ZM85.1374 45.0057C85.4219 45.2473 85.5982 45.4405 85.2539 45.7733C83.532 45.7499 84.6511 43.7782 85.1374 45.0057ZM84.2952 41.2092C84.9984 41.2613 85.7193 42.1741 85.0158 42.5904C84.7298 42.4839 84.4851 42.3232 84.0994 42.3776C82.9177 42.3665 82.9661 40.9035 84.2952 41.2092ZM82.9828 44.0143C83.2841 44.7574 83.0231 45.7288 82.7607 46.5856C81.9683 46.2131 82.5177 44.4691 82.9828 44.0143ZM80.574 40.9995C80.0023 40.8147 79.6814 39.8838 80.3608 39.509C81.0498 39.3261 82.0505 40.2743 81.8902 40.9921C81.691 41.6981 81.1449 41.2988 80.574 40.9995ZM79.6368 34.7514C80.0274 34.9855 80.4368 36.8051 79.911 37.0676C79.2483 37.2406 79.0065 34.99 79.6368 34.7514ZM76.2719 35.8908C76.967 34.7582 77.8792 37.2363 77.3935 37.8491C76.7372 38.2054 76.0846 36.4884 76.2719 35.8908ZM77.6179 31.8536C78.0859 32.8928 76.8493 33.1986 76.0724 33.3248C74.334 33.3582 77.1248 31.1516 77.6179 31.8536ZM74.3465 30.614C74.1345 29.6588 75.533 28.3179 75.1726 29.8425C74.8819 30.1379 74.5614 32.14 74.3465 30.614ZM73.2409 28.2375C73.3838 27.4357 74.219 27.2318 73.868 28.405C73.5836 29.0152 73.1281 29.1874 73.2409 28.2375ZM74.1465 24.8666C74.1727 25.2057 74.115 25.5102 73.7282 25.5434C70.4628 26.2638 73.8268 23.4792 74.1465 24.8666ZM73.3898 21.8982C73.8832 22.3477 73.957 23.7841 73.0756 22.9177C72.4099 22.5685 71.8419 22.3369 71.0844 21.9946C69.8015 20.5027 72.8704 20.9633 73.3898 21.8982ZM66.8814 35.173C66.498 33.7276 67.9932 34.3528 68.6454 34.7925C69.5643 35.9034 67.3848 35.6708 66.8814 35.173ZM69.4882 23.5711C69.0808 23.3963 68.7342 23.0155 68.1685 22.9546C67.7269 20.7827 70.5029 22.3892 69.4882 23.5711ZM68.1844 24.5435C69.1037 24.1608 68.0765 26.6333 67.6776 26.9248C66.2422 27.9601 67.8211 24.9129 68.1844 24.5435ZM71.6868 41.6242C71.141 42.9295 70.0377 43.8404 70.8694 41.7108C71.0962 40.9116 72.2625 40.3075 71.6868 41.6242ZM65.7517 20.3166C66.317 19.2606 67.0234 18.4985 67.7018 17.4544C68.0808 18.0142 68.0453 18.8503 67.5232 19.4176C67.1997 19.7531 65.5107 21.9197 65.7517 20.3166ZM65.0837 24.0384C64.8372 24.5436 65.2227 25.233 64.9159 25.5965C63.42 25.436 65.0237 21.2948 65.0837 24.0384ZM63.7773 14.7586C64.4201 14.902 66.3471 15.0986 65.6495 16.0147C64.9136 15.965 62.2056 15.7375 63.7773 14.7586ZM63.5659 17.2269C63.9549 17.5238 64.4398 18.405 63.936 18.7863C63.2275 18.8186 62.8419 17.5021 63.5659 17.2269ZM61.7426 25.8356C61.6032 26.1569 61.4198 27.6939 60.8147 27.3393C60.5561 26.067 61.6235 23.5964 62.2429 25.9948C62.0861 25.945 61.935 25.8968 61.7426 25.8356ZM62.1032 22.4255C62.1569 22.7223 61.5827 23.2625 61.4155 22.7859C61.2609 22.4288 61.9904 21.5543 62.1032 22.4255ZM60.7406 17.4058C61.167 18.4705 62.1472 19.1843 62.7837 20.256C63.2601 22.0369 61.1852 20.2346 60.8772 19.5661C60.5558 19.1365 59.779 17.4693 60.7406 17.4058ZM57.2661 24.3894C58.0064 23.9253 59.6241 23.0389 58.5963 24.6382C58.192 25.0884 56.7344 25.5438 57.2661 24.3894ZM59.0185 22.037C58.3976 21.4173 57.7982 22.0738 57.09 22.0027C56.6326 20.5968 59.7979 20.4364 59.0185 22.037ZM56.1816 17.3228C56.6432 17.7661 57.6972 19.0108 57.0774 19.5159C56.4751 19.1613 55.482 17.8309 56.1816 17.3228ZM49.9676 28.6648C50.1153 28.2363 50.8321 28.2245 50.4447 28.8971C50.5881 29.2108 50.9607 29.6447 50.7303 30.1365C50.1232 30.8362 49.4476 29.2141 49.9676 28.6648ZM50.5121 25.1099C51.5053 25.8341 50.4697 26.2266 49.6465 26.0739C49.2624 25.3715 49.7892 24.7764 50.5121 25.1099ZM53.1587 13.7777C52.368 12.3729 55.7 13.4306 55.1239 14.412C54.576 14.0599 53.809 14.1484 53.1587 13.7777ZM86.6662 41.1628C85.3596 39.0163 83.4729 37.4821 82.246 35.2886C78.0386 27.3678 79.385 30.1899 76.8944 29.3987C76.4494 28.7657 77.2084 28.3729 77.8719 28.6848C76.093 23.2282 73.3995 20.7937 71.1691 17.0835C70.9436 16.4978 70.1099 17.793 69.7578 16.7701C69.4851 16.1997 70.5157 16.1823 70.2423 15.7253C69.0844 13.6485 69.5362 14.4674 67.88 15.1732C67.5789 14.5396 68.0229 14.1584 68.6096 13.8472C67.5981 13.7174 68.019 13.0858 67.4409 12.7913C65.1164 12.6715 62.892 13.273 60.6362 12.8732C59.7732 12.9782 59.2798 14.7082 58.7828 15.3848C57.999 15.5792 58.725 13.2178 59.11 12.9077C58.9498 12.8708 58.4946 12.21 57.7686 12.1638C50.0253 10.1364 48.8924 8.95385 50.8102 14.394C50.9133 15.4214 52.3252 15.0119 52.6513 15.858C52.7088 16.2836 52.3465 16.2372 51.9705 16.1161C52.008 16.1948 52.0449 16.2738 52.0824 16.3525C50.9232 17.0131 52.5815 18.2744 52.7995 19.2262C53.1172 19.9677 52.9685 21.3289 54.0613 20.8936C54.0924 21.4483 54.9105 21.1263 55.3663 21.3259C55.792 21.8586 54.9677 22.2151 54.4718 22.1773C54.7956 22.669 54.1289 22.8117 54.1077 23.37C54.518 24.4366 54.6476 28.4897 52.985 26.5969C52.4874 25.684 53.392 25.5404 54.1296 25.8995C54.2678 25.5467 54.2279 24.9924 54.1585 24.5341C53.5724 24.8284 52.749 24.7525 53.4248 23.7594C52.4636 23.7746 51.3401 23.7582 50.295 23.5318C50.6063 25.0961 49.218 24.1919 49.0001 23.2634C48.6928 23.1086 47.9789 22.8899 47.5225 22.7653C47.5758 24.0346 48.0651 25.7492 48.1316 27.1737C48.645 26.859 49.3361 27.708 48.8617 28.01C48.8617 28.01 48.1715 28.1638 47.9115 28.1649C48.0802 29.4433 46.514 36.5401 47.363 34.758C47.6511 33.9473 48.8419 33.3111 48.4701 32.7118C47.6003 31.5958 49.1535 31.348 49.2887 32.4271C50.342 31.6253 51.7831 31.2512 52.6208 30.065C53.0865 30.4929 53.4604 30.0882 53.8975 29.4944C54.0168 30.0193 54.8687 30.189 55.2419 29.6778C55.5451 29.2656 55.2407 28.9663 55.9212 28.8031C56.595 28.6435 56.4783 27.8862 57.0263 27.3425C57.4289 27.1619 57.4314 28.0894 57.1692 28.3902C57.3987 28.549 57.8705 28.0452 58.0644 28.3938C59.4509 29.1831 61.2922 29.0066 62.866 29.1453C63.4899 29.1484 64.3259 31.9712 64.6851 32.7444C66.5834 31.0446 66.5781 32.635 65.1601 33.423C65.8881 34.8049 66.7831 36.742 67.4665 38.2847C67.5124 37.4634 69.0057 36.5096 68.9192 37.412C67.8057 38.4586 68.7599 40.5906 69.1153 41.6788C69.3455 42.2952 69.5 42.9957 69.5889 43.6603C70.6518 43.5495 72.1097 43.2396 73.2411 42.784C72.764 42.2858 73.3705 41.8777 73.9857 42.2918C73.7434 41.923 74.2253 41.6588 74.1967 41.118C74.0249 40.2402 73.3948 39.7896 72.6981 39.3885C71.0851 40.6029 69.6486 37.8049 72.4908 38.8936C72.0972 37.9981 71.4942 36.4154 70.6668 35.8789C69.7099 35.9112 68.8161 34.8331 70.1822 34.6845C69.4945 33.5377 70.2433 33.4248 69.9299 32.7165C69.6892 32.1551 69.0139 31.5654 68.9469 30.8329C69.0853 30.1701 68.5987 29.2043 69.6208 29.2772C69.2445 29.2688 70.1157 26.4653 70.4061 27.6741C70.6271 28.1379 69.6467 29.5304 70.5163 29.2189C70.4707 30.3306 70.8473 30.2739 71.4362 30.6947C71.6141 31.0372 71.7802 31.4598 72.0064 31.8948C72.8705 30.9591 74.4664 31.499 73.5094 32.6829C73.3609 32.4414 73.1502 32.5191 72.7882 32.6498C74.4324 35.2861 75.2598 37.8335 76.7462 39.5042C78.2324 41.1749 79.2465 43.0194 80.8786 44.5989C81.1299 46.7852 80.6297 47.2869 82.7223 48.1941C82.9896 48.9774 82.9126 49.6397 83.6914 49.451C83.7427 49.6178 83.8937 49.8124 84.0058 50.1008C84.167 49.5523 85.8389 47.8654 85.7063 49.312C85.1961 49.7149 84.5982 50.6012 84.0824 51.0484C84.2347 51.7435 84.5704 52.6477 84.475 53.5016C85.5632 52.9265 86.8766 52.0122 87.9562 51.5737C87.9828 51.1952 88.1185 50.8621 88.3931 50.4952C88.4877 52.226 88.8535 50.7939 89.6466 51.2323C89.8453 51.4748 90.236 51.3688 90.5609 51.3931C90.7092 51.1072 91.0939 50.7393 90.8152 50.257C90.2464 46.3606 87.9284 44.0174 86.6662 41.1628Z" fill="#FF5678"/>
<path fill-rule="evenodd" clip-rule="evenodd" d="M73.8241 49.4375C74.0883 49.2899 73.8791 48.5828 73.9822 48.1171C74.4393 46.4802 74.9022 50.386 76.0842 50.3751C75.74 49.7807 75.8182 48.507 75.0678 48.7434C75.8134 48.4486 75.2827 47.0504 76.1681 46.6599C75.7969 46.3845 75.2518 44.9668 74.7485 45.5617C74.539 45.0449 74.3419 44.559 74.1311 44.0388C73.6493 44.4068 72.4076 44.0334 72.2323 44.7627C72.218 45.1489 72.6424 45.6778 72.0722 45.8565C72.1139 46.8059 72.018 48.0274 72.5204 48.9943C73.0352 46.2935 73.3744 47.9248 73.8241 49.4375ZM87.9028 52.7642C88.3705 53.4462 89.9207 55.6898 89.3262 55.9121C88.5579 55.9786 88.6782 56.7151 88.4285 57.4331C89.6699 56.3915 89.0935 58.5702 89.2251 59.2684C89.3185 60.2569 89.8235 60.944 90.3275 61.8614C89.9126 56.8058 90.565 59.9723 92.1936 61.8589C92.2096 61.1132 91.8463 60.3013 91.4139 59.5932C90.9836 57.2152 93.0182 61.6442 93.7721 61.5622C93.6005 61.0661 93.8029 60.2876 93.372 59.8368C92.3259 58.9117 91.892 57.5035 91.5622 56.0504C90.6189 55.1125 91.0332 53.3955 90.4351 51.9759C89.742 51.9359 88.7151 52.4958 87.9028 52.7642ZM38.6113 49.3533C38.9553 48.4832 39.4017 47.4789 39.7979 46.5496C39.9091 44.5291 40.1408 42.6866 40.4463 40.6157C40.6418 37.0428 41.5835 35.9046 38.2335 34.9372C37.8497 34.8281 37.7473 35.8976 37.5315 36.3178C37.1575 36.6172 37.2252 36.9805 36.9364 37.3879C36.6367 37.7066 37.06 38.346 37.0883 38.8717C38.0171 42.3259 37.0514 45.7683 37.8099 49.284C37.9259 48.913 38.3257 48.9596 38.6113 49.3533ZM70.8162 16.9096C70.3111 16.0462 69.7391 15.008 69.1072 14.0914C66.8255 13.0812 64.2195 13.5104 61.6347 13.5948C57.8273 13.5763 52.9604 12.1881 50.4283 10.6092C49.9441 12.5948 51.2598 14.5324 51.9941 16.4159C53.8913 20.5261 56.3102 25.308 54.2389 29.4487C62.3087 25.6456 65.8254 30.8179 71.4716 28.8663C71.6532 29.2527 71.4168 29.511 71.2111 29.982C71.8886 31.4024 72.8282 32.9139 73.8318 34.2649C78.4045 41.4779 84.6041 47.1055 84.6633 53.0653C86.6933 52.1445 88.9089 50.5873 90.489 51.3704C88.9162 44.7821 83.6684 39.843 80.3821 34.0199C79.4728 32.372 78.7137 30.9034 77.9348 29.1207C76.0702 23.2235 73.086 20.7263 70.8162 16.9096ZM85.4472 20.573C83.8845 19.9849 83.5847 19.9205 82.656 18.568C81.9293 19.8656 80.5856 17.8242 80.8946 20.632C79.867 21.2592 79.9763 19.6972 80.4354 19.0745C77.8949 18.5288 79.4057 21.4962 79.5103 22.8668C78.7347 23.5234 78.2426 22.0034 78.2483 21.3228C77.1995 21.4091 76.1225 21.3366 74.9788 21.357C81.368 30.3137 76.2728 27.7987 81.2476 26.5307C81.5476 26.3877 81.4197 25.8592 81.927 25.6771C82.1268 25.6093 82.2871 25.7261 82.3193 26.0339C82.2234 28.7936 84.6947 27.1315 83.2394 25.5821C83.3439 25.1512 84.0742 25.5668 84.1171 25.0252C84.5523 23.0132 86.4416 21.8118 88.0818 20.7039C87.895 20.6205 87.7454 20.5537 87.5916 20.4849C87.6645 20.5942 87.7237 20.6835 87.7973 20.794C87.339 20.9862 86.9318 20.7631 86.55 20.8716C86.2855 21.6095 85.9357 21.889 85.4268 21.7222C85.5793 21.3859 85.7297 21.0548 85.8843 20.7138C85.8518 20.6983 85.6726 20.615 85.4472 20.573ZM50.1794 23.5255C49.3857 23.4458 48.632 23.1544 47.7448 22.9737C48.8527 28.3165 47.6655 30.8601 47.1998 34.7216C48.5778 32.0072 51.1994 31.7027 52.7184 29.4279C53.7408 28.0409 54.2064 26.5272 54.0697 24.7237C54.0453 24.3638 53.9271 23.8238 53.422 23.912C52.328 24.0603 51.3098 23.7334 50.1794 23.5255ZM49.9784 22.2461C51.1176 22.592 52.3475 22.9314 53.6701 22.9953C53.2522 21.6029 52.8272 20.2946 52.1432 18.9027C48.1109 10.535 51.3483 12.2786 48.0217 11.6072C49.2938 14.9204 49.1187 18.4441 48.2093 21.8532L49.9784 22.2461ZM68.4202 39.3241C70.8409 43.9147 68.2588 43.7948 72.31 43.043C72.809 42.666 74.2287 42.9499 73.855 42.098C72.9492 39.4319 71.525 37.1717 70.0871 34.6733C68.2055 30.5521 69.3823 30.8277 67.2737 30.7667C66.0869 30.7393 65.1366 30.2574 63.8635 30.2398C65.245 33.2449 66.9782 36.2243 68.4202 39.3241ZM77.6235 20.6661C77.7214 20.6673 77.8194 20.6683 77.8979 20.6692C77.6999 17.6637 80.1923 18.2515 82 18.3077C82.2409 17.9574 82.4066 17.6274 82.9916 17.7427C84.3127 18.9878 83.8531 19.1725 85.8192 19.8252C86.3069 20.018 86.5973 20.2372 87.2022 20.3655C87.4373 20.2527 87.6594 20.0622 88.0098 20.0978C90.2306 20.3834 91.8565 22.4071 92.0535 24.637C92.2847 26.0077 91.4777 27.2278 90.7393 28.3721C90.9973 30.5456 96.9174 31.8123 93.9559 34.5245C96.6417 36.8669 99.1828 39.607 100.909 42.8889C101.736 44.5929 102.546 48.2498 99.6253 47.7713C99.2317 47.6637 98.5102 47.7269 98.3645 48.3469C98.2389 49.4157 98.9207 50.1536 99.0712 51.2734C101.143 60.1657 93.6781 53.5082 91.0987 50.6318C91.1361 50.9913 91.2178 51.4761 91.2422 51.8922C91.0983 52.0566 91.0308 52.0293 91.2512 52.3846C92.0075 53.7812 91.8591 55.1814 92.6319 56.6125C92.88 58.0077 96.1766 60.3984 94.2946 61.179C94.538 63.006 93.7448 62.7441 92.7773 61.598C93.1636 63.7605 91.962 62.7851 91.134 61.6524C91.468 67.4775 87.9877 61.0874 88.3201 59.0104C86.5915 60.0021 86.9261 57.97 87.3916 56.9128C87.426 56.5616 87.9438 56.3203 87.5828 56.0114C88.2072 55.5158 88.0576 54.3921 87.6437 53.6199C87.3815 52.0682 85.2102 54.2623 84.1664 53.7514C83.468 52.2953 82.9762 50.364 82.3088 48.624C81.1141 50.8819 78.919 51.4102 78.0633 48.5274C77.7321 46.2437 78.4607 44.0701 77.2952 41.921C75.9874 38.7576 73.9872 36.1295 72.1181 33.2361C70.0613 29.9151 71.6799 29.9699 69.1417 30.737C70.8289 34.6827 74.1883 38.0251 74.9113 42.4383C74.8639 42.9624 74.7658 43.3606 75.1012 43.8726C75.3302 44.8842 76.0068 45.385 76.6436 46.1481C77.1796 46.8992 77.2481 48.1049 75.9872 47.669C76.1556 48.9249 77.0725 50.0488 77.1991 51.3573C77.3056 53.3118 74.8125 50.5178 74.5216 49.915C74.3542 51.3186 73.7887 51.2021 73.3141 49.8604C72.9789 52.1874 71.775 49.1087 71.7267 48.2777C71.4922 47.1198 71.8769 46.0962 71.467 44.9437C71.2945 44.3704 69.7699 44.9237 69.2745 44.7787C68.6767 44.545 67.3554 43.3732 68.8237 43.4166C67.494 38.8418 64.4158 34.9142 63.2759 30.2057C60.5348 28.8373 56.6096 30.005 53.7429 31.2828C46.1306 35.3341 47.872 37.616 46.4619 35.8309C45.4048 32.9322 47.2655 30.0404 47.2244 27.013C47.2504 25.9947 47.1915 24.5037 46.7966 23.6369C46.5615 23.6057 46.3927 23.6387 46.3299 23.3005C46.3426 22.7096 46.0775 22.7332 45.498 22.8561C44.4628 23.0072 43.6971 23.1504 42.6159 22.9888C37.5922 21.8269 32.8582 20.2153 27.9026 18.5636C31.6395 22.6388 32.8266 26.1766 35.2332 29.445C37.7819 33.2778 38.7617 32.4863 38.1568 34.1066C38.9468 34.7472 41.0933 34.5126 41.2939 36.0983C41.8728 40.3424 40.5764 44.5578 40.333 48.8722C39.48 48.5348 39.6752 51.5565 38.4584 50.3586C37.1166 52.6532 36.4871 46.6941 36.5699 46.0572C36.6142 43.4929 36.8526 40.9887 36.4768 38.3832C36.1552 38.5885 35.8176 39.4667 35.2373 38.9931C33.5466 37.7775 32.0036 36.3436 30.4251 34.8556C26.3243 31.4212 22.8349 27.4277 20.0711 22.8238C18.5078 20.2777 16.2061 17.5386 17.2937 14.2953C18.4378 10.9677 28.3999 10.3265 30.4411 9.9194C33.5878 9.08994 48.1563 8.12204 47.8728 10.753C48.5114 11.0036 48.6928 10.2779 49.2431 9.98336C49.5898 9.76137 49.7936 10.1119 50.1086 9.67541C52.934 10.679 55.9299 11.4001 58.9742 11.9531C62.1771 12.6756 65.2732 11.2848 68.4138 12.6131C70.996 14.6034 72.0853 18.4754 74.6453 20.7509C75.6062 20.6131 76.5638 20.4286 77.6235 20.6661Z" fill="black"/>
<path fill-rule="evenodd" clip-rule="evenodd" d="M13.5729 42.1626C12.5398 44.8235 11.932 44.8243 9.70713 46.0565C7.40639 47.7614 4.72761 49.0302 2.66876 51.1662C6.77111 48.753 11.573 50.2404 13.5413 48.3818C14.4975 47.4155 14.7767 46.1653 15.1856 44.817C16.3861 42.0045 15.473 43.1261 13.5729 42.1626ZM13.0914 41.9164C12.8534 41.4697 12.6403 42.1558 12.2937 41.7705C12.3152 40.3395 13.11 38.9297 13.4741 37.4475C15.0949 32.5678 17.0764 27.969 20.3479 23.9206C26.4121 32.4448 26.3562 29.1024 22.9521 33.8921C21.6416 35.1215 20.8558 36.5752 19.8809 38.1703C18.8377 39.8383 17.6173 41.1625 17.3662 43.2732C17.1726 43.7184 16.6121 42.9067 16.5128 43.493C15.9832 45.2225 15.6836 46.9478 14.7391 48.5759C13.9162 49.7715 12.6888 50.4567 11.165 50.4239C7.89949 50.8092 4.86031 50.9825 1.8841 52.8446C-1.52822 52.5759 5.11449 47.2557 6.1163 46.9767C10.0309 44.0973 12.1709 44.002 13.0914 41.9164Z" fill="black"/>
<path fill-rule="evenodd" clip-rule="evenodd" d="M52.5275 10.3364C52.2733 10.2561 52.0188 10.176 51.7646 10.0957C52.019 10.176 52.2733 10.2561 52.5275 10.3364Z" fill="black"/>
<path fill-rule="evenodd" clip-rule="evenodd" d="M41.7019 22.7851C41.8639 22.8233 42.0259 22.8616 42.1867 22.8995C42.0242 22.8612 41.8629 22.8231 41.7019 22.7851Z" fill="black"/>
<path fill-rule="evenodd" clip-rule="evenodd" d="M45.5117 9.30696C45.2934 9.37577 45.0914 9.36766 44.9261 9.18698C45.1212 9.22682 45.3164 9.26688 45.5117 9.30696Z" fill="black"/>
<path fill-rule="evenodd" clip-rule="evenodd" d="M47.1476 9.75102C46.9571 9.68941 46.7669 9.62806 46.5764 9.56644C46.7667 9.62801 46.9571 9.68941 47.1476 9.75102Z" fill="black"/>
<path fill-rule="evenodd" clip-rule="evenodd" d="M85.4685 19.6014C85.2787 19.5369 85.089 19.4726 84.8992 19.4082C85.0891 19.4726 85.2787 19.5371 85.4685 19.6014Z" fill="black"/>
<path fill-rule="evenodd" clip-rule="evenodd" d="M89.1851 20.3244C89.0279 20.2671 88.8706 20.2098 88.7131 20.1524C88.8706 20.2098 89.0279 20.2671 89.1851 20.3244Z" fill="black"/>
<path fill-rule="evenodd" clip-rule="evenodd" d="M77.5961 20.5907C77.4337 20.5558 77.2713 20.5212 77.109 20.4864L77.5961 20.5907Z" fill="black"/>
<path fill-rule="evenodd" clip-rule="evenodd" d="M44.1095 9.18851C43.9471 9.15408 43.7845 9.11962 43.6223 9.08523C43.8101 9.00268 43.9682 9.05691 44.1095 9.18851Z" fill="black"/>
<path fill-rule="evenodd" clip-rule="evenodd" d="M40.9673 44.0903C40.9921 43.9245 41.0168 43.7588 41.0417 43.5934C41.0169 43.7593 40.992 43.9248 40.9673 44.0903Z" fill="black"/>
<path fill-rule="evenodd" clip-rule="evenodd" d="M42.8892 22.9527C42.9873 22.9722 43.0854 22.9918 43.1823 23.0112C43.0838 22.9916 42.9865 22.9723 42.8892 22.9527Z" fill="black"/>
<path fill-rule="evenodd" clip-rule="evenodd" d="M93.7974 62.4989C93.895 62.5206 93.9927 62.5425 94.089 62.5643C93.9911 62.5427 93.8942 62.5208 93.7974 62.4989Z" fill="black"/>
<path fill-rule="evenodd" clip-rule="evenodd" d="M39.7693 8.97467C39.6349 8.967 39.5005 8.95914 39.3663 8.95151C39.5008 8.9592 39.6352 8.96685 39.7693 8.97467Z" fill="black"/>
<path fill-rule="evenodd" clip-rule="evenodd" d="M34.9806 20.8881C35.0787 20.9077 35.177 20.9274 35.2737 20.9468C35.1751 20.927 35.0778 20.9077 34.9806 20.8881Z" fill="black"/>
<path fill-rule="evenodd" clip-rule="evenodd" d="M66.9598 12.128C66.8207 12.0984 66.6816 12.0686 66.5425 12.0387C66.6818 12.0686 66.8207 12.0983 66.9598 12.128Z" fill="black"/>
<path fill-rule="evenodd" clip-rule="evenodd" d="M50.0098 22.1325C50.1668 22.1914 50.3237 22.2506 50.4807 22.3094C50.3236 22.2505 50.1667 22.1914 50.0098 22.1325Z" fill="black"/>
<path fill-rule="evenodd" clip-rule="evenodd" d="M85.7654 20.5612C85.6683 20.5376 85.5709 20.5139 85.4749 20.491C85.5725 20.5149 85.669 20.538 85.7654 20.5612Z" fill="black"/>
<path fill-rule="evenodd" clip-rule="evenodd" d="M84.847 20.5602C84.494 20.996 83.8394 20.7251 84.2385 21.5673C84.6976 22.1683 83.8822 22.2739 83.5469 21.8868C82.9535 20.9367 83.934 20.3368 84.847 20.5602Z" fill="black"/>
</svg>
