<svg width="20" height="20" viewBox="0 0 20 20" fill="none" xmlns="http://www.w3.org/2000/svg">
<path d="M18.0416 18.042L17.3345 15.9207L15.2132 13.7994L18.7487 10.2638C18.9362 10.0763 19.0416 9.82193 19.0416 9.55672C19.0416 9.2915 18.9362 9.03715 18.7487 8.84961L17.6272 7.72814C17.2553 7.3562 16.7391 7.14265 16.213 7.14265H14.2133L11.6776 4.60697C11.8652 4.41943 11.9705 4.16508 11.9705 3.89986C11.9705 3.63465 11.8652 3.38029 11.6776 3.19276L9.55631 1.07143C8.77637 0.291496 7.50782 0.291496 6.72788 1.07143L1.07103 6.72829C0.291089 7.50823 0.291089 8.77678 1.07103 9.55672L3.19235 11.678C3.37988 11.8656 3.63424 11.9709 3.89945 11.9709C4.16467 11.9709 4.41902 11.8656 4.60656 11.678L7.14225 14.2137L7.14225 16.2134C7.14326 16.7436 7.35369 17.2519 7.72773 17.6276L8.8492 18.7491C9.03674 18.9366 9.29109 19.042 9.55631 19.042C9.82153 19.042 10.0759 18.9366 10.2634 18.7491L13.7989 15.2136L15.9203 17.3349L18.0416 18.042ZM2.48524 8.1425L8.1421 2.48565L9.55631 3.89986L3.89945 9.55672L2.48524 8.1425ZM9.14194 16.2134V13.7994C9.14218 13.668 9.11644 13.5379 9.0662 13.4166C9.01596 13.2952 8.94221 13.185 8.8492 13.0922L6.02077 10.2638L10.2634 6.02118L13.0918 8.84961C13.2799 9.0377 13.5338 9.14306 13.7989 9.14235H16.213L16.6274 9.55672L9.55631 16.6278L9.14194 16.2134Z" fill="black"/>
</svg>
